M48
;Layer_Color=9474304
;FILE_FORMAT=2:5
INCH,LZ
;TYPE=PLATED
T01F00S00C0.00787
%
T01
X0055118Y0043307
X0056102Y0047244
X0058071
X0060039
X00625Y0043307
X0069882
X0073917
X007185Y0049114
Y0056102
X0074803
X0067913Y0055512
X0065945Y0056693
X0063976Y0055512
X0062008Y0056693
X0063976Y0050197
X0067716Y0052362
X0079921Y0049114
X0079724Y0060039
X0082284Y0070473
X0084646Y0070472
X0087795
X0090158
X0091339Y006811
X0094488
X0096063Y0069685
X0092913
X0090945Y0075984
X0106299Y0070472
X0104724Y0068898
X0113386Y006811
X0114961Y0069685
X0117126Y005315
Y0045374
X0122933Y0043307
X0125Y0049114
Y0058071
X0107874
X0104724
X010315Y0056102
X0106299
X0107087Y004626
X0103937
X0101575
X0099213
X009685
X0094488
X009252Y0050394
X0090158
X0088976Y0052165
X0093701
X009685Y0051968
X0098425Y0050394
X0052362Y0050787
Y0053543
X0050197Y0052165
X0048031Y0050787
Y0053543
X0058071Y0061516
X0064173Y0069291
X006811Y0077165
Y008189
X0069685Y0083465
X007126Y008189
X006811Y0085039
X0069685Y0086614
Y0089764
X006811Y0088189
Y0091339
Y0094488
X0069685Y0096063
Y0092913
Y0099213
Y0102362
X006811Y0100787
Y0103937
X0069685Y0105512
Y0108661
Y0111811
X006811Y0110236
Y0113386
X0069685Y0114961
X006811Y0116535
X0069685Y0122835
X006811Y0124409
X0074016Y0125591
X007559Y0124016
Y0121653
Y0127165
X0074016Y012874
X0083465
X0085039Y0127165
X0083465Y0125591
X0084252Y0122441
X0088189Y0127165
X0091339
X0089764Y012874
X0092913
X0096063
X0099213
X0102362
X0100787Y0127165
X0097638
X0103937
X0107087
X0105512Y012874
X0108661
X0113386
X0114961Y0127165
Y0124803
X0112598Y0124016
X0109843
X011811Y0127165
X0119685Y012874
X0122835
X0116535Y012874
X0122441Y0120079
Y0117717
X0125591Y0114961
X0127165Y0113386
X012874Y0114961
Y011811
Y012126
X0127165Y0119685
Y0110236
X012874Y0111811
Y0105512
X0127165Y0103937
Y0107087
Y0097638
Y0094488
X012874Y0096063
Y0099213
Y0092913
Y0089764
X0127165Y0091339
X012874Y007874
X0148031Y0077756
X0155118Y0075787
X0153543Y0095472
Y0103347
X0149213
X0146653Y0101378
Y0098425
X0146063Y0111024
X0144685Y0112598
X0146063Y0114173
X0144685Y0115748
X0146063Y0117323
X0144685Y0118898
X0146063Y0120472
X0144685Y0122047
X0146063Y0123622
X0144685Y0125197
X0142913Y0126969
X0138779Y0130905
X0135335Y0138779
X0135039Y0144882
X0133465Y0146063
X013189Y0144882
X0130315Y0146063
X012874Y0144882
X0126811Y0144114
X0123228Y0141732
X011811Y0146653
X0115157
X0113189Y0149213
Y0153543
X0121063Y0153543
X013189Y015
X0134252
X0136614
X0138976
X0139764Y0146063
X0138189Y0144882
X0136614Y0146063
X0141339Y0144882
X0142913Y0146063
X0146653Y0138779
Y0135827
X0149213Y0140748
X0153543Y0140748
Y0132874
X015Y0122047
Y0119685
Y0117323
Y0114961
X0138779Y0109744
X0107776Y0138779
X0107087Y0142866
Y0145276
X0102362Y0146063
X0100787Y0144882
X0099213Y0146063
X0097638Y0144882
X0096063Y0146063
X0094488Y0144882
X0092913Y0146063
X0091339Y0144882
X0089567Y0142913
X0085827Y0141732
X0080709Y0146653
X0077756
X0075787Y0149213
Y0153543
X0083661
X0094488Y015
X009685
X0099213
X0101575
X0069685Y0145276
Y0142866
X0073327Y0138779
X0064961Y0146063
X0063386Y0144685
X0061811Y0146063
X0060236Y0144685
X0058661Y0146063
X0057087Y0144685
X0055512Y0146063
X0053937Y0144685
X0052165Y0141732
X0050197Y0137795
Y0134843
X0047638Y0132874
X0043307
Y0140256
X0050787Y0125197
X0052165Y0123622
X0050787Y0122047
X0052165Y0120473
X0050787Y0118898
X0052165Y0117323
X0050787Y0115748
X0052165Y0114173
X0050787Y0112598
X0052165Y0111024
X0053937Y0109252
X0055118Y0105512
X0056102Y0096457
X0058071
X0060039
X006811Y0097638
Y0107087
X0058071Y011752
X004685Y0116535
Y0114173
Y0118898
Y012126
X0064345Y0130624
X0064173Y015
X0061811
X0059449
X0057087
X0058071Y0089075
X0052539Y0081279
X0052362Y0078347
X0050197Y0079724
X0048031Y0078347
Y0081102
M30
