M48
;Layer_Color=9474304
;FILE_FORMAT=2:5
INCH,LZ
;TYPE=PLATED
T01F00S00C0.00787
%
T01
X0055118Y0043307
X0056102Y0047244
X0058071
X0060039
X00625Y0043307
X0069882
X0073917
X0079724Y0049114
Y0052165
Y0060039
X0074803Y0056102
X007185
X0067913Y0054134
X0065945Y0056102
X0063976Y0050197
X0052362Y0050787
Y0053543
X0050197Y0052165
X0048031Y0050787
Y0053543
X0058071Y0061516
X0052362Y0078347
X0052539Y0081279
X0050197Y0079724
X0048031Y0081102
Y0078347
X0058071Y0089075
Y0096457
X0060039
X0056102
X0058071Y0124409
X0050197Y0134843
Y0137795
X0052756Y0140748
X0043307Y0140256
Y0132874
X0047638
X0073327Y0138779
X0081693Y0141732
X0080709Y0146653
X0077756
X0075787Y0149213
Y0153543
X0083661
X0113189
Y0149213
X0115157Y0146653
X011811
X0119095Y0141732
X0123228Y0141732
X0121063Y0153543
X0107776Y0138779
X0135335
X0141732Y0134843
X0146653Y0135827
Y0138779
X0149213Y0140748
X0153543Y0140748
Y0132874
X0150591Y0120473
Y0117323
Y0115748
X0148622Y0118898
Y0122047
X0146653Y0123622
Y0120472
Y0117323
Y0114173
X0144685Y0115748
Y0118898
Y0122047
Y0125197
X0138779Y0130905
Y0109744
X0141732Y0097441
X0146653Y0098425
Y0101378
X0149213Y0103347
X0153543
Y0095472
X0155118Y0075787
X0148031Y0077756
X0125Y005315
X0117126
Y0045374
X009252Y0051181
X0090158
X0087795
M30
