G04*
G04 #@! TF.GenerationSoftware,Altium Limited,Altium Designer,24.6.1 (21)*
G04*
G04 Layer_Physical_Order=1*
G04 Layer_Color=255*
%FSLAX44Y44*%
%MOMM*%
G71*
G04*
G04 #@! TF.SameCoordinates,CF2FAE43-62CE-4C83-8938-405C2DF05F79*
G04*
G04*
G04 #@! TF.FilePolarity,Positive*
G04*
G01*
G75*
%ADD10C,0.2000*%
%ADD13R,0.3200X0.6500*%
%ADD14R,0.2200X0.4750*%
%ADD15R,1.2000X3.2000*%
%ADD16R,0.7800X0.6800*%
%ADD17R,0.4000X0.7000*%
%ADD18R,0.7000X0.4000*%
%ADD19R,0.2500X0.6000*%
%ADD20R,2.0000X1.2000*%
%ADD21R,0.6500X0.3200*%
%ADD22R,0.4750X0.2200*%
%ADD23R,0.3000X0.4500*%
%ADD24C,0.2500*%
%ADD25R,0.5500X0.5500*%
%ADD26R,0.8000X1.3000*%
%ADD27R,0.2000X1.4500*%
%ADD28R,1.4500X0.2000*%
%ADD29R,0.3000X0.5000*%
%ADD30R,0.5000X0.3000*%
%ADD49C,0.1000*%
%ADD50C,0.2500*%
%ADD51C,0.0500*%
%ADD52C,0.4000*%
G36*
X117484Y219109D02*
X117010Y218000D01*
X115250D01*
Y215270D01*
X117500D01*
Y212730D01*
X115250D01*
Y210000D01*
X115437D01*
X116500Y209500D01*
Y207794D01*
X113500D01*
Y208500D01*
X104500D01*
Y202500D01*
X113500D01*
Y203206D01*
X116500D01*
X116500Y195500D01*
X115437Y195000D01*
X115250D01*
Y192270D01*
X117500D01*
Y191000D01*
X118770D01*
Y187000D01*
X118980D01*
X119750Y187000D01*
X121020Y187000D01*
X121230D01*
Y191000D01*
X123770D01*
Y187000D01*
X124750D01*
X126020Y187000D01*
X126230D01*
Y191000D01*
X128770D01*
Y186143D01*
X128918Y185833D01*
Y184500D01*
X126500D01*
Y150500D01*
X130000D01*
Y149166D01*
X129750Y148000D01*
X125778D01*
X124943Y148272D01*
X124321Y148824D01*
X124122Y149122D01*
X118500Y154744D01*
Y184500D01*
X104500D01*
Y150500D01*
X116256D01*
X117582Y149173D01*
X117096Y148000D01*
X115250D01*
Y145270D01*
X117500D01*
Y142730D01*
X115250D01*
Y140000D01*
X115437D01*
X115978Y139746D01*
X116150Y138342D01*
X115602Y137794D01*
X113500D01*
Y138500D01*
X104500D01*
Y132500D01*
X113500D01*
Y133206D01*
X116500D01*
X116500Y125500D01*
X115437Y125000D01*
X115250D01*
Y122270D01*
X117500D01*
Y121000D01*
X118770D01*
Y117000D01*
X118980D01*
X119750Y117000D01*
X121020Y117000D01*
X121230D01*
Y121000D01*
X123770D01*
Y117000D01*
X124750D01*
X126020Y117000D01*
X126230D01*
Y121000D01*
X128770D01*
Y117000D01*
X129750D01*
X131020Y117000D01*
X133980D01*
X134750Y117000D01*
Y117000D01*
X135250D01*
Y117000D01*
X138875D01*
X138985Y116735D01*
X139750Y116418D01*
X155000D01*
X155765Y116735D01*
X156082Y117500D01*
X168730D01*
X170000Y117500D01*
Y117500D01*
X170000D01*
Y117500D01*
X175000D01*
Y122500D01*
X184000Y122500D01*
Y121000D01*
X191500D01*
Y122500D01*
X193500D01*
Y121000D01*
X201000D01*
Y121146D01*
X201903Y121750D01*
X203097D01*
X204199Y122207D01*
X204493Y122500D01*
X236000Y122500D01*
Y116250D01*
X235270D01*
Y112875D01*
Y109500D01*
X236000D01*
Y101624D01*
X140000D01*
X139766Y101527D01*
X133979Y101982D01*
X128105Y103392D01*
X122525Y105704D01*
X117375Y108860D01*
X112782Y112782D01*
X108860Y117375D01*
X105704Y122525D01*
X103392Y128105D01*
X101982Y133979D01*
X101527Y139766D01*
X101624Y140000D01*
Y220000D01*
X116750D01*
X117484Y219109D01*
D02*
G37*
G36*
X154750Y243270D02*
X154750Y242000D01*
X154750D01*
Y242000D01*
X154750Y242000D01*
Y231270D01*
X154750Y230000D01*
X154750D01*
Y230000D01*
X154750Y230000D01*
Y226000D01*
Y215270D01*
X154750Y214000D01*
X154750D01*
Y214000D01*
X154750Y214000D01*
Y203270D01*
X154750Y202000D01*
X154750D01*
Y202000D01*
X154750Y202000D01*
Y191270D01*
X154750Y190000D01*
X154750D01*
Y190000D01*
X154750Y190000D01*
Y188206D01*
X153577Y187719D01*
X153148Y188148D01*
X152000Y188624D01*
Y190000D01*
X148770D01*
Y187000D01*
Y184000D01*
X152000D01*
X152000Y184000D01*
Y184000D01*
X153121Y183583D01*
X153852Y182852D01*
X154249Y182687D01*
Y181313D01*
X153852Y181148D01*
X153270Y180566D01*
X152000Y181000D01*
Y181000D01*
X143000D01*
Y175000D01*
X140500D01*
Y184500D01*
X130000D01*
Y185834D01*
X130250Y187000D01*
X133980D01*
X134750Y187000D01*
Y187000D01*
X135250D01*
Y187000D01*
X136230D01*
Y191000D01*
X137500D01*
Y192270D01*
X139750D01*
Y192770D01*
X141020Y193449D01*
X141122Y193381D01*
X142000Y193206D01*
X143000D01*
Y192500D01*
X152000D01*
Y198500D01*
X143000D01*
Y198500D01*
X141881Y198864D01*
X138500Y202244D01*
X138500Y209500D01*
X139563Y210000D01*
X139750D01*
Y212730D01*
X137500D01*
Y214000D01*
X136230D01*
Y218000D01*
X135250D01*
X134794Y219081D01*
Y220500D01*
X140500D01*
Y247500D01*
X154750D01*
Y243270D01*
D02*
G37*
G36*
X155000Y152500D02*
Y146000D01*
Y124000D01*
Y117500D01*
X139750D01*
Y119730D01*
X137500D01*
Y122270D01*
X139750D01*
Y122770D01*
X141020Y123449D01*
X141122Y123381D01*
X142000Y123206D01*
X143000Y122500D01*
Y122500D01*
X152000D01*
Y128500D01*
X143000D01*
Y128500D01*
X141881Y128864D01*
X138500Y132244D01*
X138500Y139500D01*
X139563Y140000D01*
X139750D01*
Y142730D01*
X137500D01*
Y144000D01*
X136230D01*
Y148000D01*
X135250D01*
X134794Y149081D01*
Y150500D01*
X140500D01*
Y173918D01*
X143000D01*
X143765Y174235D01*
X144082Y175000D01*
X155000D01*
Y152500D01*
D02*
G37*
%LPC*%
G36*
X113500Y217500D02*
X110270D01*
Y215770D01*
X113500D01*
Y217500D01*
D02*
G37*
G36*
X107730D02*
X104500D01*
Y215770D01*
X107730D01*
Y217500D01*
D02*
G37*
G36*
X113500Y213230D02*
X110270D01*
Y211500D01*
X113500D01*
Y213230D01*
D02*
G37*
G36*
X107730D02*
X104500D01*
Y211500D01*
X107730D01*
Y213230D01*
D02*
G37*
G36*
X116230Y189730D02*
X115250D01*
Y187000D01*
X116230D01*
Y189730D01*
D02*
G37*
G36*
X113500Y147500D02*
X110270D01*
Y145770D01*
X113500D01*
Y147500D01*
D02*
G37*
G36*
X107730D02*
X104500D01*
Y145770D01*
X107730D01*
Y147500D01*
D02*
G37*
G36*
X113500Y143230D02*
X110270D01*
Y141500D01*
X113500D01*
Y143230D01*
D02*
G37*
G36*
X107730D02*
X104500D01*
Y141500D01*
X107730D01*
Y143230D01*
D02*
G37*
G36*
X116230Y119730D02*
X115250D01*
Y117000D01*
X116230D01*
Y119730D01*
D02*
G37*
G36*
X224730Y116250D02*
X223900D01*
Y114145D01*
X224730D01*
Y116250D01*
D02*
G37*
G36*
X166000Y114500D02*
X160000D01*
Y113436D01*
X159347Y113000D01*
X158153D01*
X157500Y113436D01*
Y114500D01*
X151500D01*
Y105500D01*
X157500D01*
Y106564D01*
X158153Y107000D01*
X159347D01*
X160000Y106564D01*
Y105500D01*
X166000D01*
Y114500D01*
D02*
G37*
G36*
X148500D02*
X142500D01*
Y113402D01*
X141230Y112738D01*
X140597Y113000D01*
X139403D01*
X138301Y112543D01*
X137457Y111699D01*
X137000Y110597D01*
Y109403D01*
X137457Y108301D01*
X138301Y107457D01*
X139403Y107000D01*
X140597D01*
X141230Y107262D01*
X142500Y106598D01*
Y105500D01*
X148500D01*
Y114500D01*
D02*
G37*
G36*
X201000Y119000D02*
X193500D01*
Y111500D01*
X201000D01*
Y119000D01*
D02*
G37*
G36*
X219100Y118400D02*
X213900D01*
Y109900D01*
X219100D01*
Y118400D01*
D02*
G37*
G36*
X232730Y116250D02*
X231270D01*
Y112875D01*
Y109500D01*
X232730D01*
Y112875D01*
Y116250D01*
D02*
G37*
G36*
X228730D02*
X227270D01*
Y112875D01*
Y109500D01*
X228730D01*
Y112875D01*
Y116250D01*
D02*
G37*
G36*
X224730Y111605D02*
X223900D01*
Y109500D01*
X224730D01*
Y111605D01*
D02*
G37*
G36*
X191500Y119000D02*
X184000D01*
Y111500D01*
X184146D01*
X184750Y110597D01*
Y109403D01*
X185207Y108301D01*
X186051Y107457D01*
X187153Y107000D01*
X188347D01*
X189449Y107457D01*
X190293Y108301D01*
X190750Y109403D01*
Y110597D01*
X191353Y111500D01*
X191500D01*
Y119000D01*
D02*
G37*
G36*
X175000Y114500D02*
X169000D01*
Y105500D01*
X175000D01*
Y106598D01*
X176270Y107262D01*
X176903Y107000D01*
X178097D01*
X179199Y107457D01*
X180043Y108301D01*
X180500Y109403D01*
Y110597D01*
X180043Y111699D01*
X179199Y112543D01*
X178097Y113000D01*
X176903D01*
X176270Y112738D01*
X175000Y113402D01*
Y114500D01*
D02*
G37*
G36*
X152000Y242500D02*
X148770D01*
Y240770D01*
X152000D01*
Y242500D01*
D02*
G37*
G36*
X146230D02*
X143000D01*
Y240770D01*
X146230D01*
Y242500D01*
D02*
G37*
G36*
X152000Y238230D02*
X148770D01*
Y236500D01*
X152000D01*
Y238230D01*
D02*
G37*
G36*
X146230D02*
X143000D01*
Y236500D01*
X146230D01*
Y238230D01*
D02*
G37*
G36*
X152000Y233500D02*
X143000D01*
Y227500D01*
X144064D01*
X144500Y226847D01*
Y225653D01*
X144064Y225000D01*
X143000D01*
Y219000D01*
X152000D01*
Y225000D01*
X150936D01*
X150500Y225653D01*
Y226847D01*
X150936Y227500D01*
X152000D01*
Y233500D01*
D02*
G37*
G36*
X138770Y218000D02*
Y215270D01*
X139750D01*
Y218000D01*
X138770D01*
D02*
G37*
G36*
X152000Y216000D02*
X148770D01*
Y214270D01*
X152000D01*
Y216000D01*
D02*
G37*
G36*
X146230D02*
X143000D01*
Y214270D01*
X146230D01*
Y216000D01*
D02*
G37*
G36*
X152000Y211730D02*
X148770D01*
Y210000D01*
X152000D01*
Y211730D01*
D02*
G37*
G36*
X146230D02*
X143000D01*
Y210000D01*
X146230D01*
Y211730D01*
D02*
G37*
G36*
X152000Y207500D02*
X148770D01*
Y205770D01*
X152000D01*
Y207500D01*
D02*
G37*
G36*
X146230D02*
X143000D01*
Y205770D01*
X146230D01*
Y207500D01*
D02*
G37*
G36*
X152000Y203230D02*
X148770D01*
Y201500D01*
X152000D01*
Y203230D01*
D02*
G37*
G36*
X146230D02*
X143000D01*
Y201500D01*
X146230D01*
Y203230D01*
D02*
G37*
G36*
Y190000D02*
X143000D01*
Y188270D01*
X146230D01*
Y190000D01*
D02*
G37*
G36*
X139750Y189730D02*
X138770D01*
Y187000D01*
X139750D01*
Y189730D01*
D02*
G37*
G36*
X146230Y185730D02*
X143000D01*
Y184000D01*
X146230D01*
Y185730D01*
D02*
G37*
G36*
X152000Y172500D02*
X148770D01*
Y170770D01*
X152000D01*
Y172500D01*
D02*
G37*
G36*
X146230D02*
X143000D01*
Y170770D01*
X146230D01*
Y172500D01*
D02*
G37*
G36*
X152000Y168230D02*
X148770D01*
Y166500D01*
X152000D01*
Y168230D01*
D02*
G37*
G36*
X146230D02*
X143000D01*
Y166500D01*
X146230D01*
Y168230D01*
D02*
G37*
G36*
X152000Y163500D02*
X143000D01*
Y157500D01*
X144064D01*
X144500Y156847D01*
Y155653D01*
X144064Y155000D01*
X143000D01*
Y149000D01*
X152000D01*
Y155000D01*
X150936D01*
X150500Y155653D01*
Y156847D01*
X150936Y157500D01*
X152000D01*
Y163500D01*
D02*
G37*
G36*
X138770Y148000D02*
Y145270D01*
X139750D01*
Y148000D01*
X138770D01*
D02*
G37*
G36*
X152000Y146000D02*
X148770D01*
Y144270D01*
X152000D01*
Y146000D01*
D02*
G37*
G36*
X146230D02*
X143000D01*
Y144270D01*
X146230D01*
Y146000D01*
D02*
G37*
G36*
X152000Y141730D02*
X148770D01*
Y140000D01*
X152000D01*
Y141730D01*
D02*
G37*
G36*
X146230D02*
X143000D01*
Y140000D01*
X146230D01*
Y141730D01*
D02*
G37*
G36*
X152000Y137500D02*
X148770D01*
Y135770D01*
X152000D01*
Y137500D01*
D02*
G37*
G36*
X146230D02*
X143000D01*
Y135770D01*
X146230D01*
Y137500D01*
D02*
G37*
G36*
X152000Y133230D02*
X148770D01*
Y131500D01*
X152000D01*
Y133230D01*
D02*
G37*
G36*
X146230D02*
X143000D01*
Y131500D01*
X146230D01*
Y133230D01*
D02*
G37*
%LPD*%
D10*
X382500Y298000D02*
X387120D01*
X382500Y294000D02*
X387120D01*
X389500Y257500D02*
X390000Y257000D01*
Y265000D01*
X392500Y267500D01*
X387120Y286000D02*
X391500D01*
X392500Y285000D01*
X387120Y282000D02*
X392000D01*
X392500Y282500D01*
Y267500D02*
Y282500D01*
Y285000D01*
X352500Y318000D02*
X357000Y322500D01*
X390000D01*
X392500Y320000D01*
X387120Y314000D02*
X391500D01*
X392500Y315000D01*
X387120Y318000D02*
X392000D01*
X392500Y317500D01*
Y315000D02*
Y317500D01*
Y320000D01*
X322000Y352500D02*
Y389500D01*
X325000Y392500D01*
X331000Y387120D02*
Y391500D01*
X330000Y392500D02*
X331000Y391500D01*
X327000Y387120D02*
Y392000D01*
X327500Y392500D01*
X325000D02*
X327500D01*
X330000D01*
X227500Y359500D02*
X234500Y352500D01*
X227500Y359500D02*
Y390000D01*
X230000Y392500D01*
X236000Y387120D02*
Y391500D01*
X235000Y392500D02*
X236000Y391500D01*
X232000Y387120D02*
Y392000D01*
X232500Y392500D01*
X230000D02*
X232500D01*
X235000D01*
X132500Y390000D02*
X135000Y392500D01*
X141000Y387120D02*
Y391500D01*
X140000Y392500D02*
X141000Y391500D01*
X137000Y387120D02*
Y392000D01*
X137500Y392500D01*
X135000D02*
X137500D01*
X140000D01*
X122000Y369500D02*
X132500Y380000D01*
X110000Y369500D02*
X122000D01*
X132500Y380000D02*
Y390000D01*
X143000Y277500D02*
X147500Y282000D01*
X110000Y277500D02*
X143000D01*
X107500Y280000D02*
X110000Y277500D01*
X108500Y286000D02*
X112880D01*
X107500Y285000D02*
X108500Y286000D01*
X108000Y282000D02*
X112880D01*
X107500Y282500D02*
X108000Y282000D01*
X107500Y280000D02*
Y282500D01*
Y285000D01*
X292500Y389500D02*
X293000Y390000D01*
X285000D02*
X293000D01*
X282500Y392500D02*
X285000Y390000D01*
X264000Y387120D02*
Y391500D01*
X265000Y392500D01*
X268000Y387120D02*
Y392000D01*
X267500Y392500D02*
X268000Y392000D01*
X267500Y392500D02*
X282500D01*
X265000D02*
X267500D01*
X197500Y389500D02*
X198000Y390000D01*
X190000D02*
X198000D01*
X187500Y392500D02*
X190000Y390000D01*
X169000Y387120D02*
Y391500D01*
X170000Y392500D01*
X173000Y387120D02*
Y392000D01*
X172500Y392500D02*
X173000Y392000D01*
X172500Y392500D02*
X187500D01*
X170000D02*
X172500D01*
X110000Y343000D02*
X110500Y342500D01*
X110000Y335000D02*
Y343000D01*
X107500Y332500D02*
X110000Y335000D01*
X108500Y314000D02*
X112880D01*
X107500Y315000D02*
X108500Y314000D01*
X108000Y318000D02*
X112880D01*
X107500Y317500D02*
X108000Y318000D01*
X107500Y317500D02*
Y332500D01*
Y315000D02*
Y317500D01*
X390000Y242500D02*
Y248000D01*
X110000Y352000D02*
Y360500D01*
X110000Y352000D02*
X110000Y352000D01*
X207000Y390000D02*
X212500D01*
X212500Y390000D01*
X302000Y390000D02*
X307500D01*
X307500Y390000D01*
X390000Y352000D02*
Y357500D01*
X367500Y380000D02*
X390000Y357500D01*
X367500Y380000D02*
Y390000D01*
X365000Y392500D02*
X367500Y390000D01*
X359000Y387120D02*
Y391500D01*
X360000Y392500D01*
X363000Y387120D02*
Y392000D01*
X362500Y392500D02*
X363000Y392000D01*
X360000Y392500D02*
X362500D01*
X365000D01*
X390000Y337500D02*
Y343000D01*
X313000Y352500D02*
Y360000D01*
X352500Y327000D02*
Y332500D01*
D13*
X216500Y135850D02*
D03*
X283500D02*
D03*
Y114150D02*
D03*
X216500D02*
D03*
X182500Y385850D02*
D03*
X127500D02*
D03*
Y364150D02*
D03*
X182500D02*
D03*
X277500D02*
D03*
X222500D02*
D03*
Y385850D02*
D03*
X277500D02*
D03*
X372500D02*
D03*
X317500D02*
D03*
Y364150D02*
D03*
X372500D02*
D03*
D14*
X226000Y112875D02*
D03*
X230000D02*
D03*
X234000D02*
D03*
X238000D02*
D03*
X242000D02*
D03*
X246000D02*
D03*
X250000D02*
D03*
X254000D02*
D03*
X258000D02*
D03*
X262000D02*
D03*
X266000D02*
D03*
X270000D02*
D03*
X274000D02*
D03*
X226000Y137120D02*
D03*
X230000D02*
D03*
X234000D02*
D03*
X238000D02*
D03*
X242000D02*
D03*
X246000D02*
D03*
X250000D02*
D03*
X254000D02*
D03*
X258000D02*
D03*
X262000D02*
D03*
X266000D02*
D03*
X270000D02*
D03*
X274000D02*
D03*
X157000Y387120D02*
D03*
X153000D02*
D03*
X161000D02*
D03*
X149000D02*
D03*
X169000D02*
D03*
X165000D02*
D03*
X137000Y362880D02*
D03*
X141000D02*
D03*
X145000D02*
D03*
X149000D02*
D03*
X153000D02*
D03*
X157000D02*
D03*
X161000D02*
D03*
X165000D02*
D03*
X169000D02*
D03*
X173000D02*
D03*
X137000Y387120D02*
D03*
X141000D02*
D03*
X145000D02*
D03*
X173000D02*
D03*
X240000D02*
D03*
X236000D02*
D03*
X232000D02*
D03*
X268000Y362880D02*
D03*
X264000D02*
D03*
X260000D02*
D03*
X256000D02*
D03*
X252000D02*
D03*
X248000D02*
D03*
X244000D02*
D03*
X240000D02*
D03*
X236000D02*
D03*
X232000D02*
D03*
X260000Y387120D02*
D03*
X264000D02*
D03*
X244000D02*
D03*
X256000D02*
D03*
X248000D02*
D03*
X252000D02*
D03*
X268000D02*
D03*
X347000D02*
D03*
X343000D02*
D03*
X351000D02*
D03*
X339000D02*
D03*
X359000D02*
D03*
X355000D02*
D03*
X327000Y362880D02*
D03*
X331000D02*
D03*
X335000D02*
D03*
X339000D02*
D03*
X343000D02*
D03*
X347000D02*
D03*
X351000D02*
D03*
X355000D02*
D03*
X359000D02*
D03*
X363000D02*
D03*
X327000Y387120D02*
D03*
X331000D02*
D03*
X335000D02*
D03*
X363000D02*
D03*
D15*
X133500Y237500D02*
D03*
X111500D02*
D03*
X133500Y167500D02*
D03*
X111500D02*
D03*
D16*
X146350Y351650D02*
D03*
Y338350D02*
D03*
X163650D02*
D03*
Y351650D02*
D03*
D17*
X285500Y147500D02*
D03*
X294500D02*
D03*
X230500D02*
D03*
X239500D02*
D03*
X295500Y352500D02*
D03*
X304500D02*
D03*
X243000D02*
D03*
X252000D02*
D03*
X208000D02*
D03*
X217000D02*
D03*
X303000Y147500D02*
D03*
X312000D02*
D03*
X182000Y352500D02*
D03*
X173000D02*
D03*
X269500D02*
D03*
X260500D02*
D03*
X339500D02*
D03*
X330500D02*
D03*
X190500D02*
D03*
X199500D02*
D03*
X278000D02*
D03*
X287000D02*
D03*
X348000D02*
D03*
X357000D02*
D03*
X225500D02*
D03*
X234500D02*
D03*
X313000D02*
D03*
X322000D02*
D03*
X167000Y160000D02*
D03*
X158000D02*
D03*
X154500Y110000D02*
D03*
X145500D02*
D03*
X163000D02*
D03*
X172000D02*
D03*
X389500Y215000D02*
D03*
X380500D02*
D03*
Y182500D02*
D03*
X389500D02*
D03*
X380500Y225000D02*
D03*
X389500D02*
D03*
X303000Y135000D02*
D03*
X312000D02*
D03*
X389500Y235000D02*
D03*
X380500D02*
D03*
X222000Y147500D02*
D03*
X213000D02*
D03*
X302000Y390000D02*
D03*
X293000D02*
D03*
X207000D02*
D03*
X198000D02*
D03*
D18*
X352500Y257000D02*
D03*
Y248000D02*
D03*
Y309500D02*
D03*
Y300500D02*
D03*
X147500Y178000D02*
D03*
Y187000D02*
D03*
Y262000D02*
D03*
Y253000D02*
D03*
Y239500D02*
D03*
Y230500D02*
D03*
Y213000D02*
D03*
Y222000D02*
D03*
Y204500D02*
D03*
Y195500D02*
D03*
X109000Y214500D02*
D03*
Y205500D02*
D03*
X147500Y134500D02*
D03*
Y125500D02*
D03*
Y143000D02*
D03*
Y152000D02*
D03*
Y169500D02*
D03*
Y160500D02*
D03*
X109000Y144500D02*
D03*
Y135500D02*
D03*
X147500Y311500D02*
D03*
Y302500D02*
D03*
X352500Y283000D02*
D03*
Y292000D02*
D03*
X147500Y320500D02*
D03*
Y329500D02*
D03*
X352500Y274500D02*
D03*
Y265500D02*
D03*
X147500Y282000D02*
D03*
Y273000D02*
D03*
X110000Y360500D02*
D03*
Y369500D02*
D03*
X352500Y327000D02*
D03*
Y318000D02*
D03*
X202500Y147000D02*
D03*
Y138000D02*
D03*
X390000Y257000D02*
D03*
Y248000D02*
D03*
Y352000D02*
D03*
Y343000D02*
D03*
X110000Y352000D02*
D03*
Y343000D02*
D03*
D19*
X137500Y214000D02*
D03*
X132500D02*
D03*
X127500D02*
D03*
X122500D02*
D03*
X117500D02*
D03*
Y191000D02*
D03*
X122500D02*
D03*
X127500D02*
D03*
X132500D02*
D03*
X137500D02*
D03*
Y144000D02*
D03*
X132500D02*
D03*
X127500D02*
D03*
X122500D02*
D03*
X117500D02*
D03*
Y121000D02*
D03*
X122500D02*
D03*
X127500D02*
D03*
X132500D02*
D03*
X137500D02*
D03*
D20*
X127500Y202500D02*
D03*
Y132500D02*
D03*
D21*
X135850Y327500D02*
D03*
Y272500D02*
D03*
X114150D02*
D03*
Y327500D02*
D03*
X385850Y272500D02*
D03*
Y327500D02*
D03*
X364150D02*
D03*
Y272500D02*
D03*
D22*
X112880Y290000D02*
D03*
Y286000D02*
D03*
Y282000D02*
D03*
X137120Y318000D02*
D03*
Y314000D02*
D03*
Y310000D02*
D03*
Y306000D02*
D03*
Y302000D02*
D03*
Y298000D02*
D03*
Y294000D02*
D03*
Y290000D02*
D03*
Y286000D02*
D03*
Y282000D02*
D03*
X112880Y310000D02*
D03*
Y314000D02*
D03*
Y294000D02*
D03*
Y306000D02*
D03*
Y298000D02*
D03*
Y302000D02*
D03*
Y318000D02*
D03*
X387120Y282000D02*
D03*
Y298000D02*
D03*
Y302000D02*
D03*
Y294000D02*
D03*
Y306000D02*
D03*
Y286000D02*
D03*
Y290000D02*
D03*
X362880Y318000D02*
D03*
Y314000D02*
D03*
Y310000D02*
D03*
Y306000D02*
D03*
Y302000D02*
D03*
Y298000D02*
D03*
Y294000D02*
D03*
Y290000D02*
D03*
Y286000D02*
D03*
Y282000D02*
D03*
X387120Y318000D02*
D03*
Y314000D02*
D03*
Y310000D02*
D03*
D23*
X157500Y120750D02*
D03*
X162500D02*
D03*
X167500D02*
D03*
Y149250D02*
D03*
X162500D02*
D03*
X157500D02*
D03*
X172500Y120750D02*
D03*
Y149250D02*
D03*
D24*
X385000Y197500D02*
D03*
X380000D02*
D03*
Y202500D02*
D03*
X385000D02*
D03*
X390000D02*
D03*
Y197500D02*
D03*
Y192500D02*
D03*
X385000D02*
D03*
X380000D02*
D03*
D25*
X187750Y124750D02*
D03*
Y115250D02*
D03*
X197250D02*
D03*
Y124750D02*
D03*
X302750Y115250D02*
D03*
Y124750D02*
D03*
X312250D02*
D03*
Y115250D02*
D03*
D26*
X367500Y235000D02*
D03*
X354400D02*
D03*
D27*
X320000Y337000D02*
D03*
X316000D02*
D03*
X312000D02*
D03*
X308000D02*
D03*
X304000D02*
D03*
X300000D02*
D03*
X296000D02*
D03*
X292000D02*
D03*
X288000D02*
D03*
X284000D02*
D03*
X280000D02*
D03*
X276000D02*
D03*
X272000D02*
D03*
X268000D02*
D03*
X264000D02*
D03*
X260000D02*
D03*
X256000D02*
D03*
X252000D02*
D03*
X248000D02*
D03*
X244000D02*
D03*
X240000D02*
D03*
X236000D02*
D03*
X232000D02*
D03*
X228000D02*
D03*
X224000D02*
D03*
X220000D02*
D03*
X216000D02*
D03*
X212000D02*
D03*
X208000D02*
D03*
X204000D02*
D03*
X200000D02*
D03*
X196000D02*
D03*
X192000D02*
D03*
X188000D02*
D03*
X184000D02*
D03*
X180000D02*
D03*
X212000Y163000D02*
D03*
X208000D02*
D03*
X204000D02*
D03*
X200000D02*
D03*
X196000D02*
D03*
X260000D02*
D03*
X188000D02*
D03*
X184000D02*
D03*
X264000D02*
D03*
X268000D02*
D03*
X276000D02*
D03*
X272000D02*
D03*
X304000D02*
D03*
X292000D02*
D03*
X288000D02*
D03*
X284000D02*
D03*
X308000D02*
D03*
X312000D02*
D03*
X316000D02*
D03*
X280000D02*
D03*
X300000D02*
D03*
X296000D02*
D03*
X320000D02*
D03*
X192000D02*
D03*
X256000D02*
D03*
X252000D02*
D03*
X248000D02*
D03*
X244000D02*
D03*
X240000D02*
D03*
X236000D02*
D03*
X232000D02*
D03*
X224000D02*
D03*
X220000D02*
D03*
X228000D02*
D03*
X216000D02*
D03*
X180000D02*
D03*
D28*
X163000Y320000D02*
D03*
Y316000D02*
D03*
Y312000D02*
D03*
Y308000D02*
D03*
Y304000D02*
D03*
Y300000D02*
D03*
Y296000D02*
D03*
Y292000D02*
D03*
Y288000D02*
D03*
Y284000D02*
D03*
Y280000D02*
D03*
Y276000D02*
D03*
Y272000D02*
D03*
Y268000D02*
D03*
Y264000D02*
D03*
Y260000D02*
D03*
Y256000D02*
D03*
Y252000D02*
D03*
Y248000D02*
D03*
Y244000D02*
D03*
Y240000D02*
D03*
Y236000D02*
D03*
Y232000D02*
D03*
Y228000D02*
D03*
Y224000D02*
D03*
Y220000D02*
D03*
Y216000D02*
D03*
Y212000D02*
D03*
Y208000D02*
D03*
Y204000D02*
D03*
Y200000D02*
D03*
Y196000D02*
D03*
Y192000D02*
D03*
Y188000D02*
D03*
Y184000D02*
D03*
Y180000D02*
D03*
X337000Y292000D02*
D03*
Y320000D02*
D03*
Y300000D02*
D03*
Y288000D02*
D03*
Y308000D02*
D03*
Y312000D02*
D03*
Y304000D02*
D03*
Y316000D02*
D03*
Y296000D02*
D03*
Y216000D02*
D03*
Y224000D02*
D03*
Y220000D02*
D03*
Y248000D02*
D03*
Y244000D02*
D03*
Y240000D02*
D03*
Y236000D02*
D03*
Y228000D02*
D03*
Y232000D02*
D03*
Y212000D02*
D03*
Y256000D02*
D03*
Y268000D02*
D03*
Y252000D02*
D03*
Y264000D02*
D03*
Y284000D02*
D03*
Y272000D02*
D03*
Y260000D02*
D03*
Y276000D02*
D03*
Y280000D02*
D03*
Y192000D02*
D03*
Y204000D02*
D03*
Y184000D02*
D03*
Y180000D02*
D03*
Y188000D02*
D03*
Y196000D02*
D03*
Y200000D02*
D03*
Y208000D02*
D03*
D29*
X192500Y136000D02*
D03*
X187500D02*
D03*
X192500Y149000D02*
D03*
X187500D02*
D03*
X182500D02*
D03*
Y136000D02*
D03*
X292500Y366000D02*
D03*
Y379000D02*
D03*
X297500D02*
D03*
X302500D02*
D03*
X297500Y366000D02*
D03*
X302500D02*
D03*
X197500D02*
D03*
Y379000D02*
D03*
X202500D02*
D03*
X207500D02*
D03*
X202500Y366000D02*
D03*
X207500D02*
D03*
D30*
X366000Y257500D02*
D03*
X379000D02*
D03*
Y252500D02*
D03*
Y247500D02*
D03*
X366000Y252500D02*
D03*
Y247500D02*
D03*
X134000Y342500D02*
D03*
X121000D02*
D03*
Y347500D02*
D03*
Y352500D02*
D03*
X134000Y347500D02*
D03*
Y352500D02*
D03*
X366000D02*
D03*
X379000D02*
D03*
Y347500D02*
D03*
Y342500D02*
D03*
X366000Y347500D02*
D03*
Y342500D02*
D03*
D49*
X147500Y152000D02*
Y160500D01*
Y222000D02*
Y230500D01*
X155000Y184000D02*
X163000D01*
X155000Y180000D02*
X163000D01*
X147500Y187000D02*
X152000D01*
X153000Y178000D02*
X155000Y180000D01*
X147500Y178000D02*
X153000D01*
X152000Y187000D02*
X155000Y184000D01*
X154000Y256000D02*
X163000D01*
X151000Y253000D02*
X154000Y256000D01*
X147500Y253000D02*
X151000D01*
X154000Y260000D02*
X163000D01*
X147500Y262000D02*
X152000D01*
X154000Y260000D01*
X337000Y308000D02*
X346000D01*
X347500Y309500D02*
X352500D01*
X346000Y308000D02*
X347500Y309500D01*
X337000Y304000D02*
X346000D01*
X349500Y300500D02*
X352500D01*
X346000Y304000D02*
X349500Y300500D01*
X147500Y311500D02*
Y320500D01*
X182000Y352500D02*
X190500D01*
X269500D02*
X278000D01*
X339500D02*
X348000D01*
X143500Y302500D02*
X147500D01*
X137120Y318000D02*
X140500D01*
X142000Y319500D01*
X143500Y329500D02*
X147500D01*
X142000Y328000D02*
X143500Y329500D01*
X142000Y319500D02*
Y328000D01*
X140500Y314000D02*
X142000Y312500D01*
Y304000D02*
Y312500D01*
X137120Y314000D02*
X140500D01*
X142000Y304000D02*
X143500Y302500D01*
X173000Y359500D02*
Y362880D01*
Y359500D02*
X174500Y358000D01*
X363000Y358500D02*
Y362880D01*
X357000Y352500D02*
X363000Y358500D01*
X359000Y359500D02*
Y362880D01*
X357500Y358000D02*
X359000Y359500D01*
X330500Y352500D02*
X336000Y358000D01*
X357500D01*
X359500Y286000D02*
X362880D01*
X353500Y292000D02*
X359500Y286000D01*
X352500Y292000D02*
X353500D01*
X157500Y149250D02*
Y159500D01*
X158000Y160000D01*
X162500Y149250D02*
Y152500D01*
X167000Y157000D02*
Y160000D01*
X162500Y152500D02*
X167000Y157000D01*
X375500Y202500D02*
X380000D01*
X375500Y192500D02*
X380000D01*
X390000D02*
X394000D01*
X376000Y197500D02*
X380000D01*
X184000Y328000D02*
Y337000D01*
X182000Y326000D02*
X184000Y328000D01*
X178000Y326000D02*
X182000D01*
X173000Y331000D02*
Y342300D01*
Y331000D02*
X178000Y326000D01*
X163650Y351650D02*
X173000Y342300D01*
X312000Y135000D02*
X317500D01*
X297500D02*
X303000D01*
X312000Y125000D02*
Y135000D01*
Y125000D02*
X312250Y124750D01*
X202500Y132500D02*
Y138000D01*
X297500Y115250D02*
X302750D01*
X236000Y154000D02*
Y163000D01*
Y154000D02*
X239500Y150500D01*
Y147500D02*
Y150500D01*
X232000Y154000D02*
Y163000D01*
X230500Y147500D02*
Y152500D01*
X232000Y154000D01*
X292000Y154000D02*
Y163000D01*
X288000Y154000D02*
Y163000D01*
X285500Y147500D02*
Y151500D01*
X288000Y154000D01*
X294500Y147500D02*
Y151500D01*
X292000Y154000D02*
X294500Y151500D01*
X197250Y124750D02*
X202500D01*
X140000Y110000D02*
X145500D01*
X172000D02*
X177500D01*
X167500Y142500D02*
Y149250D01*
Y142500D02*
X167500Y142500D01*
X172500Y137500D02*
Y149250D01*
Y137500D02*
X172500Y137500D01*
X157500Y120750D02*
Y125000D01*
X160000Y127500D01*
X172500Y120750D02*
Y125000D01*
X170000Y127500D02*
X172500Y125000D01*
X162500Y120750D02*
Y127500D01*
X162500Y127500D01*
X167500Y120750D02*
Y127500D01*
X167500Y127500D01*
X162500D02*
X167500D01*
X170000D01*
X160000D02*
X162500D01*
X154500Y110000D02*
X163000D01*
X385000Y202500D02*
Y205000D01*
Y197500D02*
X387500Y200000D01*
X390000Y202500D02*
X394000Y206500D01*
X222000Y147500D02*
X226000Y143500D01*
Y137120D02*
Y143500D01*
Y133000D02*
Y137120D01*
X223000Y130000D02*
X226000Y133000D01*
X163000Y304000D02*
X170750D01*
X171750Y305000D01*
X197500D01*
X163000Y308000D02*
X170750D01*
X171750Y307000D01*
X198328D01*
X197500Y305000D02*
X231000Y271500D01*
Y185000D02*
Y271500D01*
X198328Y307000D02*
X233000Y272328D01*
Y185000D02*
Y272328D01*
X234000Y131000D02*
X235000Y130000D01*
X234000Y131000D02*
Y137120D01*
X229000Y130000D02*
X230000Y131000D01*
Y137120D01*
X163000Y300000D02*
X195000D01*
X226000Y184594D02*
Y269000D01*
X195000Y300000D02*
X226000Y269000D01*
X195836Y162836D02*
X196000Y163000D01*
X202500Y147000D02*
Y152500D01*
Y147000D02*
X212500D01*
X213000Y147500D01*
X359500Y282000D02*
X362880D01*
X358000Y271000D02*
Y280500D01*
X352500Y265500D02*
X358000Y271000D01*
Y280500D02*
X359500Y282000D01*
X377500Y302000D02*
X387120D01*
X377500Y310000D02*
X387120D01*
X382500Y306000D02*
X387120D01*
X362880Y310000D02*
X367500D01*
X362880Y302000D02*
X367500D01*
X362880Y306000D02*
X372500D01*
X362880Y314000D02*
X372500D01*
X362880Y318000D02*
X367500D01*
X362880Y298000D02*
X372500D01*
X362880Y294000D02*
X367500D01*
X362880Y290000D02*
X372500D01*
X352500Y274500D02*
Y283000D01*
X196000Y139500D02*
Y163000D01*
X192500Y136000D02*
X196000Y139500D01*
X182500Y142500D02*
Y149000D01*
X182500Y142500D02*
X182500Y142500D01*
Y130000D02*
Y136000D01*
Y130000D02*
X187750Y124750D01*
X187500Y134379D02*
Y136000D01*
Y134379D02*
X191879Y130000D01*
X200000D01*
X202500Y132500D01*
X188000Y156000D02*
Y163000D01*
X182500Y150500D02*
X188000Y156000D01*
X182500Y149000D02*
Y150500D01*
X187500Y145000D02*
Y149000D01*
Y145000D02*
X190000Y142500D01*
X192500Y145000D02*
Y149000D01*
X190000Y142500D02*
X192500Y145000D01*
X351000Y257000D02*
X352500D01*
X337000Y244000D02*
X345000D01*
X349000Y248000D02*
X352500D01*
X345000Y244000D02*
X349000Y248000D01*
X337000Y248000D02*
X345000D01*
X347000Y250000D02*
Y253000D01*
X351000Y257000D01*
X345000Y248000D02*
X347000Y250000D01*
X360000Y247500D02*
X366000D01*
X375000Y252500D02*
X379000D01*
X372500Y250000D02*
X375000Y252500D01*
X366000D02*
X370000D01*
X372500Y255000D01*
Y257500D01*
X375000Y247500D02*
X379000D01*
X372500Y250000D02*
X375000Y247500D01*
X382500Y290000D02*
X387120D01*
X377500Y285000D02*
X382500Y290000D01*
X379000Y257500D02*
Y262500D01*
X366000Y257500D02*
Y261000D01*
X377500Y272500D01*
Y285000D01*
X302500Y360000D02*
Y366000D01*
X297500Y375000D02*
Y379000D01*
Y375000D02*
X300000Y372500D01*
X297500Y366000D02*
Y370000D01*
X295000Y372500D02*
X297500Y370000D01*
X292500Y372500D02*
X295000D01*
X302500Y375000D02*
Y379000D01*
X300000Y372500D02*
X302500Y375000D01*
X260000Y382500D02*
X265000Y377500D01*
X287500Y379000D02*
X292500D01*
X289000Y366000D02*
X292500D01*
X277500Y377500D02*
X289000Y366000D01*
X265000Y377500D02*
X277500D01*
X207500Y360000D02*
Y366000D01*
X202500Y375000D02*
Y379000D01*
Y375000D02*
X205000Y372500D01*
X202500Y366000D02*
Y370000D01*
X200000Y372500D02*
X202500Y370000D01*
X197500Y372500D02*
X200000D01*
X207500Y375000D02*
Y379000D01*
X205000Y372500D02*
X207500Y375000D01*
X165000Y382500D02*
X170000Y377500D01*
X192500Y379000D02*
X197500D01*
X194000Y366000D02*
X197500D01*
X182500Y377500D02*
X194000Y366000D01*
X170000Y377500D02*
X182500D01*
X121000Y347500D02*
X125000D01*
X127500Y350000D01*
X130000Y347500D02*
X134000D01*
X127500Y345000D02*
X130000Y347500D01*
X127500Y342500D02*
Y345000D01*
X121000Y352500D02*
X125000D01*
X127500Y350000D01*
X117500Y310000D02*
X122500Y315000D01*
X121000Y337500D02*
Y342500D01*
X134000Y339000D02*
Y342500D01*
X122500Y327500D02*
X134000Y339000D01*
X122500Y315000D02*
Y327500D01*
X134000Y352500D02*
Y357500D01*
X385000Y230500D02*
X389500Y235000D01*
Y225000D02*
X394000Y220500D01*
X385000Y210000D02*
Y230500D01*
X380500Y215000D02*
Y225000D01*
X394000Y206500D02*
Y220500D01*
X380500Y209500D02*
Y215000D01*
X385000Y210000D02*
X387500Y207500D01*
X380500Y209500D02*
X385000Y205000D01*
X387500D02*
Y207500D01*
X380500Y225000D02*
Y235000D01*
X360000Y342500D02*
X366000D01*
X375000Y347500D02*
X379000D01*
X372500Y345000D02*
X375000Y347500D01*
X366000D02*
X370000D01*
X372500Y350000D01*
Y352500D01*
X375000Y342500D02*
X379000D01*
X372500Y345000D02*
X375000Y342500D01*
X379000Y352500D02*
Y357500D01*
X112880Y310000D02*
X117500D01*
X165000Y382500D02*
Y387120D01*
X260000Y382500D02*
Y387120D01*
X366000Y352500D02*
Y356000D01*
X367500Y357500D01*
Y375000D01*
X355000Y382500D02*
X357500Y380000D01*
X355000Y382500D02*
Y387120D01*
X357500Y380000D02*
X362500D01*
X367500Y375000D01*
X169000Y359000D02*
Y362880D01*
X173000Y352500D02*
Y355000D01*
X169000Y359000D02*
X173000Y355000D01*
X194000Y358000D02*
X199500Y352500D01*
X174500Y358000D02*
X194000D01*
X281500D02*
X287000Y352500D01*
X268000Y359500D02*
X269500Y358000D01*
X268000Y359500D02*
Y362880D01*
X269500Y358000D02*
X281500D01*
X264000Y359000D02*
Y362880D01*
X260500Y355500D02*
X264000Y359000D01*
X260500Y352500D02*
Y355500D01*
X304000Y337000D02*
Y352000D01*
X304500Y352500D01*
X300000Y337000D02*
Y346000D01*
X295500Y350500D02*
Y352500D01*
Y350500D02*
X300000Y346000D01*
X252000Y337000D02*
Y352500D01*
X252000Y352500D02*
X252000Y352500D01*
X248000Y337000D02*
Y346000D01*
X243000Y351000D02*
X248000Y346000D01*
X243000Y351000D02*
Y352500D01*
X216000Y337000D02*
Y351500D01*
X217000Y352500D01*
X212000Y337000D02*
Y346000D01*
X208000Y350000D02*
Y352500D01*
Y350000D02*
X212000Y346000D01*
X187750Y110000D02*
Y115250D01*
D50*
X122500Y214000D02*
Y217500D01*
X132500Y214000D02*
Y236500D01*
X111500Y228500D02*
X122500Y217500D01*
X132500Y191000D02*
Y197500D01*
Y144000D02*
Y166500D01*
X111500Y158500D02*
X122500Y147500D01*
Y144000D02*
Y147500D01*
X127500Y132500D02*
Y144000D01*
X132500Y121000D02*
Y127500D01*
X353450Y209050D02*
X370000Y192500D01*
X366550Y209450D02*
X373500Y202500D01*
X375500D01*
X370000Y192500D02*
X375500D01*
X127500Y202500D02*
Y214000D01*
X142000Y125500D02*
X147500D01*
X142000Y195500D02*
X147500D01*
X135000Y202500D02*
X142000Y195500D01*
X109000Y205500D02*
X124500D01*
X135000Y132500D02*
X142000Y125500D01*
X109000Y135500D02*
X124500D01*
D51*
X387500Y200000D02*
Y205000D01*
D52*
X147500Y156250D02*
D03*
Y226250D02*
D03*
X127500Y132500D02*
D03*
X122000Y206000D02*
D03*
X133000Y199000D02*
D03*
X122000Y129000D02*
D03*
Y136000D02*
D03*
X133000Y129000D02*
D03*
Y136000D02*
D03*
X142500Y245000D02*
D03*
X147500D02*
D03*
X152500D02*
D03*
Y120000D02*
D03*
X147500Y316000D02*
D03*
X343750Y352500D02*
D03*
X273750D02*
D03*
X186250D02*
D03*
X394000Y192500D02*
D03*
X376000Y197500D02*
D03*
X317500Y135000D02*
D03*
X297500D02*
D03*
X202500Y132500D02*
D03*
X297500Y115250D02*
D03*
X202500Y124750D02*
D03*
X177500Y110000D02*
D03*
X140000D02*
D03*
X167500Y142500D02*
D03*
X172500Y137500D02*
D03*
X142500Y120000D02*
D03*
X147500D02*
D03*
X162500Y127500D02*
D03*
X158750Y110000D02*
D03*
X223000Y130000D02*
D03*
X235000D02*
D03*
X229000D02*
D03*
X202500Y152500D02*
D03*
X127500Y202500D02*
D03*
X122000Y199000D02*
D03*
X133450Y206450D02*
D03*
X382500Y294000D02*
D03*
Y298000D02*
D03*
X377500Y302000D02*
D03*
Y310000D02*
D03*
X382500Y306000D02*
D03*
X367500Y318000D02*
D03*
X372500Y314000D02*
D03*
X367500Y310000D02*
D03*
X372500Y306000D02*
D03*
X367500Y302000D02*
D03*
X372500Y298000D02*
D03*
X367500Y294000D02*
D03*
X372500Y290000D02*
D03*
X352500Y278750D02*
D03*
X182500Y142500D02*
D03*
X190000D02*
D03*
X360000Y247500D02*
D03*
X372500Y257500D02*
D03*
Y250000D02*
D03*
X379000Y262500D02*
D03*
X302500Y360000D02*
D03*
X292500Y372500D02*
D03*
X300000D02*
D03*
X287500Y379000D02*
D03*
X207500Y360000D02*
D03*
X197500Y372500D02*
D03*
X205000D02*
D03*
X192500Y379000D02*
D03*
X127500Y342500D02*
D03*
Y350000D02*
D03*
X121000Y337500D02*
D03*
X134000Y357500D02*
D03*
X390000Y242500D02*
D03*
X110000Y356250D02*
D03*
X212500Y390000D02*
D03*
X307500Y390000D02*
D03*
X390000Y337500D02*
D03*
Y357500D02*
D03*
X360000Y342500D02*
D03*
X372500Y352500D02*
D03*
Y345000D02*
D03*
X379000Y357500D02*
D03*
X390000Y262500D02*
D03*
X287500Y390000D02*
D03*
X192500D02*
D03*
X110000Y337500D02*
D03*
X313000Y360000D02*
D03*
X352500Y332500D02*
D03*
X187750Y110000D02*
D03*
M02*
