G04*
G04 #@! TF.GenerationSoftware,Altium Limited,Altium Designer,24.6.1 (21)*
G04*
G04 Layer_Physical_Order=4*
G04 Layer_Color=16711680*
%FSLAX44Y44*%
%MOMM*%
G71*
G04*
G04 #@! TF.SameCoordinates,CF2FAE43-62CE-4C83-8938-405C2DF05F79*
G04*
G04*
G04 #@! TF.FilePolarity,Positive*
G04*
G01*
G75*
%ADD49C,0.1000*%
%ADD52C,0.4000*%
D49*
X172500Y115000D02*
X177500Y110000D01*
X172500Y115000D02*
Y137500D01*
X152500Y110000D02*
X167500Y125000D01*
Y142500D01*
X140000Y110000D02*
X152500D01*
X235000Y130000D02*
Y130086D01*
X233000Y132086D02*
Y185000D01*
Y132086D02*
X235000Y130086D01*
X229000Y130000D02*
Y130086D01*
X231000Y132086D01*
Y185000D01*
X223000Y130000D02*
X226000Y133000D01*
Y185000D01*
X338157Y239157D02*
X367500Y268500D01*
Y282000D01*
X339392Y237392D02*
X372500Y270500D01*
Y286000D01*
X365000Y318000D02*
X367500D01*
X358000Y290000D02*
X372500D01*
X323685Y255685D02*
X358000Y290000D01*
X320531Y255531D02*
X359000Y294000D01*
X367500D01*
X308088Y246088D02*
X360000Y298000D01*
X372500D01*
X288963Y238963D02*
X364000Y314000D01*
X362000Y306000D02*
X372500D01*
X361000Y302000D02*
X367500D01*
X283316Y236316D02*
X365000Y318000D01*
X291758Y238758D02*
X363000Y310000D01*
X364000Y314000D02*
X372500D01*
X363000Y310000D02*
X367500D01*
X299060Y243060D02*
X362000Y306000D01*
X304886Y245886D02*
X361000Y302000D01*
D52*
X147500Y156250D02*
D03*
Y226250D02*
D03*
X127500Y132500D02*
D03*
X122000Y206000D02*
D03*
X133000Y199000D02*
D03*
X122000Y129000D02*
D03*
Y136000D02*
D03*
X133000Y129000D02*
D03*
Y136000D02*
D03*
X142500Y245000D02*
D03*
X147500D02*
D03*
X152500D02*
D03*
Y120000D02*
D03*
X147500Y316000D02*
D03*
X343750Y352500D02*
D03*
X273750D02*
D03*
X186250D02*
D03*
X394000Y192500D02*
D03*
X376000Y197500D02*
D03*
X317500Y135000D02*
D03*
X297500D02*
D03*
X202500Y132500D02*
D03*
X297500Y115250D02*
D03*
X202500Y124750D02*
D03*
X177500Y110000D02*
D03*
X140000D02*
D03*
X167500Y142500D02*
D03*
X172500Y137500D02*
D03*
X142500Y120000D02*
D03*
X147500D02*
D03*
X162500Y127500D02*
D03*
X158750Y110000D02*
D03*
X223000Y130000D02*
D03*
X235000D02*
D03*
X229000D02*
D03*
X202500Y152500D02*
D03*
X127500Y202500D02*
D03*
X122000Y199000D02*
D03*
X133450Y206450D02*
D03*
X382500Y294000D02*
D03*
Y298000D02*
D03*
X377500Y302000D02*
D03*
Y310000D02*
D03*
X382500Y306000D02*
D03*
X367500Y318000D02*
D03*
X372500Y314000D02*
D03*
X367500Y310000D02*
D03*
X372500Y306000D02*
D03*
X367500Y302000D02*
D03*
X372500Y298000D02*
D03*
X367500Y294000D02*
D03*
X372500Y290000D02*
D03*
X352500Y278750D02*
D03*
X182500Y142500D02*
D03*
X190000D02*
D03*
X360000Y247500D02*
D03*
X372500Y257500D02*
D03*
Y250000D02*
D03*
X379000Y262500D02*
D03*
X302500Y360000D02*
D03*
X292500Y372500D02*
D03*
X300000D02*
D03*
X287500Y379000D02*
D03*
X207500Y360000D02*
D03*
X197500Y372500D02*
D03*
X205000D02*
D03*
X192500Y379000D02*
D03*
X127500Y342500D02*
D03*
Y350000D02*
D03*
X121000Y337500D02*
D03*
X134000Y357500D02*
D03*
X390000Y242500D02*
D03*
X110000Y356250D02*
D03*
X212500Y390000D02*
D03*
X307500Y390000D02*
D03*
X390000Y337500D02*
D03*
Y357500D02*
D03*
X360000Y342500D02*
D03*
X372500Y352500D02*
D03*
Y345000D02*
D03*
X379000Y357500D02*
D03*
X390000Y262500D02*
D03*
X287500Y390000D02*
D03*
X192500D02*
D03*
X110000Y337500D02*
D03*
X313000Y360000D02*
D03*
X352500Y332500D02*
D03*
X187750Y110000D02*
D03*
M02*
