G04*
G04 #@! TF.GenerationSoftware,Altium Limited,Altium Designer,24.6.1 (21)*
G04*
G04 Layer_Physical_Order=2*
G04 Layer_Color=32768*
%FSLAX44Y44*%
%MOMM*%
G71*
G04*
G04 #@! TF.SameCoordinates,62AED817-F39D-4985-B1AB-8BE26FD2EB72*
G04*
G04*
G04 #@! TF.FilePolarity,Negative*
G04*
G01*
G75*
%ADD53C,1.0160*%
%ADD54C,0.6000*%
D53*
X100000Y140000D02*
G03*
X140000Y100000I40000J0D01*
G01*
X360000Y100000D02*
G03*
X400000Y140000I0J40000D01*
G01*
Y360000D02*
G03*
X360000Y400000I-40000J0D01*
G01*
X140000Y400000D02*
G03*
X100000Y360000I0J-40000D01*
G01*
X140000Y100000D02*
X360000Y100000D01*
X400000Y140000D02*
Y360000D01*
X140000Y400000D02*
X360000Y400000D01*
X100000Y140000D02*
X100000Y360000D01*
D54*
X142500Y245000D02*
D03*
X147500D02*
D03*
X152500D02*
D03*
Y120000D02*
D03*
X147500Y316000D02*
D03*
X343750Y352500D02*
D03*
X273750D02*
D03*
X186250D02*
D03*
X394000Y192500D02*
D03*
X317500Y135000D02*
D03*
X202500Y132500D02*
D03*
X177500Y110000D02*
D03*
X140000D02*
D03*
X167500Y142500D02*
D03*
X172500Y137500D02*
D03*
X142500Y120000D02*
D03*
X147500D02*
D03*
X158750Y110000D02*
D03*
X223000Y130000D02*
D03*
X235000D02*
D03*
X229000D02*
D03*
X377500Y302000D02*
D03*
Y310000D02*
D03*
X382500Y306000D02*
D03*
X367500Y318000D02*
D03*
X372500Y314000D02*
D03*
X367500Y310000D02*
D03*
X372500Y306000D02*
D03*
X367500Y302000D02*
D03*
X372500Y298000D02*
D03*
X367500Y294000D02*
D03*
X372500Y290000D02*
D03*
X352500Y278750D02*
D03*
X182500Y142500D02*
D03*
X360000Y247500D02*
D03*
X372500Y257500D02*
D03*
X379000Y262500D02*
D03*
X302500Y360000D02*
D03*
X292500Y372500D02*
D03*
X287500Y379000D02*
D03*
X207500Y360000D02*
D03*
X197500Y372500D02*
D03*
X192500Y379000D02*
D03*
X127500Y342500D02*
D03*
X121000Y337500D02*
D03*
X134000Y357500D02*
D03*
X390000D02*
D03*
X360000Y342500D02*
D03*
X372500Y352500D02*
D03*
X379000Y357500D02*
D03*
X390000Y262500D02*
D03*
X287500Y390000D02*
D03*
X192500D02*
D03*
X110000Y337500D02*
D03*
X187750Y110000D02*
D03*
M02*
