G04*
G04 #@! TF.GenerationSoftware,Altium Limited,Altium Designer,24.6.1 (21)*
G04*
G04 Layer_Color=65535*
%FSLAX44Y44*%
%MOMM*%
G71*
G04*
G04 #@! TF.SameCoordinates,62AED817-F39D-4985-B1AB-8BE26FD2EB72*
G04*
G04*
G04 #@! TF.FilePolarity,Positive*
G04*
G01*
G75*
%ADD10C,0.2000*%
%ADD11C,0.2540*%
%ADD12C,0.0200*%
G36*
X367500Y391250D02*
X327500D01*
Y399250D01*
X367500D01*
Y391250D01*
D02*
G37*
G36*
X177500D02*
X137500D01*
Y399250D01*
X177500D01*
Y391250D01*
D02*
G37*
G36*
X275000Y101250D02*
X225000D01*
Y109250D01*
X275000D01*
Y101250D01*
D02*
G37*
G36*
X109000Y280250D02*
X101000D01*
Y320250D01*
X109000D01*
Y280250D01*
D02*
G37*
G36*
X399000Y280250D02*
X391000D01*
Y320250D01*
X399000D01*
Y280250D01*
D02*
G37*
G36*
X270000Y399250D02*
Y391250D01*
X230000D01*
Y399250D01*
X270000D01*
D02*
G37*
%LPC*%
G36*
X343476Y398447D02*
Y397162D01*
X340859D01*
Y398447D01*
X339671D01*
Y397162D01*
X338876D01*
D01*
Y396089D01*
X339671D01*
Y392026D01*
X338876D01*
X340702D01*
X343476Y396094D01*
Y393140D01*
Y398447D01*
D02*
G37*
G36*
X349439D02*
X348149D01*
Y395650D01*
X345616D01*
Y398447D01*
X344327D01*
Y392049D01*
X349439D01*
Y398447D01*
D02*
G37*
G36*
X356124Y398558D02*
X350553D01*
X353212D01*
X353022Y398553D01*
X352842Y398535D01*
X352671Y398512D01*
X352513Y398479D01*
X352361Y398438D01*
X352222Y398396D01*
X352093Y398350D01*
X351977Y398303D01*
X351871Y398257D01*
X351778Y398211D01*
X351700Y398165D01*
X351635Y398128D01*
X351584Y398096D01*
X351547Y398072D01*
X351524Y398054D01*
X351515Y398049D01*
X351395Y397948D01*
X351279Y397837D01*
X351177Y397716D01*
X351080Y397592D01*
X350993Y397462D01*
X350914Y397333D01*
X350845Y397203D01*
X350784Y397079D01*
X350729Y396963D01*
X350683Y396852D01*
X350641Y396750D01*
X350609Y396662D01*
X350586Y396593D01*
X350577Y396561D01*
X350567Y396538D01*
X350563Y396519D01*
X350558Y396505D01*
X350553Y396496D01*
Y396505D01*
Y396491D01*
X351806Y396094D01*
X351838Y396223D01*
X351875Y396343D01*
X351917Y396450D01*
X351959Y396556D01*
X352000Y396648D01*
X352047Y396732D01*
X352093Y396810D01*
X352134Y396875D01*
X352176Y396935D01*
X352213Y396986D01*
X352250Y397032D01*
X352282Y397065D01*
X352305Y397092D01*
X352324Y397115D01*
X352338Y397125D01*
X352342Y397129D01*
X352412Y397185D01*
X352486Y397236D01*
X352560Y397277D01*
X352638Y397314D01*
X352712Y397347D01*
X352786Y397374D01*
X352855Y397397D01*
X352920Y397411D01*
X352985Y397425D01*
X353045Y397434D01*
X353096Y397444D01*
X353138Y397448D01*
X353175Y397453D01*
X353225D01*
X353355Y397448D01*
X353475Y397430D01*
X353591Y397407D01*
X353697Y397374D01*
X353799Y397333D01*
X353891Y397291D01*
X353974Y397245D01*
X354053Y397194D01*
X354122Y397148D01*
X354182Y397102D01*
X354238Y397060D01*
X354279Y397018D01*
X354312Y396986D01*
X354339Y396963D01*
X354353Y396944D01*
X354358Y396940D01*
X354436Y396833D01*
X354501Y396718D01*
X354561Y396588D01*
X354608Y396454D01*
X354649Y396311D01*
X354686Y396168D01*
X354714Y396025D01*
X354737Y395886D01*
X354756Y395752D01*
X354769Y395627D01*
X354779Y395511D01*
X354783Y395414D01*
X354788Y395368D01*
Y395331D01*
X354793Y395299D01*
Y395266D01*
Y395248D01*
Y395229D01*
Y395220D01*
Y395215D01*
X354788Y395007D01*
X354774Y394813D01*
X354751Y394638D01*
X354723Y394471D01*
X354691Y394323D01*
X354654Y394189D01*
X354612Y394064D01*
X354571Y393958D01*
X354534Y393861D01*
X354492Y393782D01*
X354455Y393713D01*
X354423Y393658D01*
X354395Y393616D01*
X354372Y393584D01*
X354358Y393565D01*
X354353Y393560D01*
X354266Y393468D01*
X354178Y393390D01*
X354081Y393325D01*
X353988Y393265D01*
X353891Y393214D01*
X353794Y393172D01*
X353702Y393140D01*
X353609Y393112D01*
X353526Y393089D01*
X353447Y393075D01*
X353378Y393061D01*
X353318Y393057D01*
X353272Y393052D01*
X353235Y393047D01*
X353202D01*
X353105Y393052D01*
X353017Y393061D01*
X352929Y393075D01*
X352846Y393094D01*
X352772Y393117D01*
X352698Y393140D01*
X352634Y393168D01*
X352569Y393191D01*
X352518Y393218D01*
X352467Y393246D01*
X352426Y393269D01*
X352393Y393292D01*
X352365Y393311D01*
X352342Y393325D01*
X352333Y393334D01*
X352328Y393339D01*
X352264Y393394D01*
X352204Y393454D01*
X352148Y393519D01*
X352102Y393584D01*
X352060Y393648D01*
X352019Y393713D01*
X351954Y393838D01*
X351931Y393893D01*
X351908Y393949D01*
X351889Y393995D01*
X351875Y394037D01*
X351866Y394074D01*
X351857Y394097D01*
X351852Y394115D01*
Y394120D01*
X350572Y393815D01*
X350614Y393676D01*
X350664Y393542D01*
X350715Y393422D01*
X350766Y393306D01*
X350821Y393204D01*
X350877Y393107D01*
X350932Y393020D01*
X350983Y392941D01*
X351034Y392872D01*
X351080Y392812D01*
X351122Y392756D01*
X351159Y392715D01*
X351187Y392682D01*
X351210Y392659D01*
X351224Y392645D01*
X351228Y392641D01*
X351372Y392516D01*
X351520Y392409D01*
X351677Y392317D01*
X351834Y392238D01*
X351996Y392169D01*
X352153Y392114D01*
X352310Y392067D01*
X352458Y392030D01*
X352597Y392003D01*
X352726Y391979D01*
X352837Y391966D01*
X352939Y391952D01*
X352980D01*
X353022Y391947D01*
X353054D01*
X353082Y391942D01*
X353133D01*
X356124D01*
X353133D01*
X353258Y391947D01*
X353378Y391952D01*
X353614Y391979D01*
X353831Y392026D01*
X354039Y392081D01*
X354233Y392146D01*
X354409Y392225D01*
X354575Y392303D01*
X354723Y392386D01*
X354853Y392469D01*
X354968Y392548D01*
X355070Y392622D01*
X355153Y392691D01*
X355218Y392747D01*
X355264Y392793D01*
X355278Y392807D01*
X355292Y392821D01*
X355296Y392826D01*
X355301Y392830D01*
X355375Y392913D01*
X355444Y393001D01*
X355574Y393191D01*
X355680Y393385D01*
X355777Y393588D01*
X355856Y393796D01*
X355925Y394000D01*
X355976Y394203D01*
X356022Y394402D01*
X356054Y394587D01*
X356082Y394758D01*
X356091Y394836D01*
X356101Y394910D01*
X356105Y394980D01*
X356110Y395044D01*
X356115Y395104D01*
X356119Y395155D01*
Y395202D01*
X356124Y395239D01*
Y395308D01*
X356119Y395447D01*
X356115Y395585D01*
X356087Y395844D01*
X356050Y396089D01*
X355994Y396316D01*
X355934Y396528D01*
X355865Y396727D01*
X355791Y396903D01*
X355712Y397065D01*
X355639Y397208D01*
X355564Y397333D01*
X355527Y397388D01*
X355495Y397439D01*
X355463Y397485D01*
X355435Y397527D01*
X355407Y397564D01*
X355380Y397596D01*
X355361Y397624D01*
X355343Y397647D01*
X355324Y397665D01*
X355315Y397679D01*
X355306Y397684D01*
Y397689D01*
X355227Y397767D01*
X355148Y397841D01*
X355065Y397911D01*
X354982Y397975D01*
X354806Y398091D01*
X354635Y398192D01*
X354455Y398276D01*
X354284Y398345D01*
X354113Y398405D01*
X353951Y398447D01*
X353799Y398484D01*
X353660Y398512D01*
X353531Y398530D01*
X353475Y398539D01*
X353424Y398544D01*
X353378Y398549D01*
X353336Y398553D01*
X353299D01*
X353267Y398558D01*
X356124D01*
D02*
G37*
%LPD*%
G36*
X353133Y391942D02*
D01*
D01*
D01*
D02*
G37*
G36*
X340859Y393907D02*
Y396089D01*
X342329D01*
X340859Y393907D01*
D02*
G37*
G36*
X348149Y392049D02*
X345616D01*
Y394568D01*
X348149D01*
Y392049D01*
D02*
G37*
%LPC*%
G36*
X166001Y398558D02*
X160431D01*
Y391942D01*
Y396491D01*
X161684Y396094D01*
X161716Y396223D01*
X161753Y396343D01*
X161795Y396450D01*
X161836Y396556D01*
X161878Y396648D01*
X161924Y396732D01*
X161970Y396810D01*
X162012Y396875D01*
X162054Y396935D01*
X162090Y396986D01*
X162127Y397032D01*
X162160Y397065D01*
X162183Y397092D01*
X162201Y397115D01*
X162215Y397125D01*
X162220Y397129D01*
X162289Y397185D01*
X162363Y397236D01*
X162437Y397277D01*
X162516Y397314D01*
X162590Y397347D01*
X162664Y397374D01*
X162733Y397397D01*
X162798Y397411D01*
X162862Y397425D01*
X162923Y397434D01*
X162973Y397444D01*
X163015Y397448D01*
X163052Y397453D01*
X163103D01*
X163232Y397448D01*
X163353Y397430D01*
X163468Y397407D01*
X163574Y397374D01*
X163676Y397333D01*
X163769Y397291D01*
X163852Y397245D01*
X163930Y397194D01*
X164000Y397148D01*
X164060Y397102D01*
X164115Y397060D01*
X164157Y397018D01*
X164189Y396986D01*
X164217Y396963D01*
X164231Y396944D01*
X164235Y396940D01*
X164314Y396833D01*
X164379Y396718D01*
X164439Y396588D01*
X164485Y396454D01*
X164527Y396311D01*
X164564Y396168D01*
X164591Y396025D01*
X164615Y395886D01*
X164633Y395752D01*
X164647Y395627D01*
X164656Y395511D01*
X164661Y395414D01*
X164665Y395368D01*
Y395331D01*
X164670Y395299D01*
Y395266D01*
Y395248D01*
Y395229D01*
Y395220D01*
Y395215D01*
X164665Y395007D01*
X164652Y394813D01*
X164628Y394638D01*
X164601Y394471D01*
X164568Y394323D01*
X164531Y394189D01*
X164490Y394064D01*
X164448Y393958D01*
X164411Y393861D01*
X164370Y393782D01*
X164333Y393713D01*
X164300Y393658D01*
X164272Y393616D01*
X164249Y393584D01*
X164235Y393565D01*
X164231Y393560D01*
X164143Y393468D01*
X164055Y393390D01*
X163958Y393325D01*
X163866Y393265D01*
X163769Y393214D01*
X163671Y393172D01*
X163579Y393140D01*
X163486Y393112D01*
X163403Y393089D01*
X163325Y393075D01*
X163255Y393061D01*
X163195Y393057D01*
X163149Y393052D01*
X163112Y393047D01*
X163080D01*
X162983Y393052D01*
X162895Y393061D01*
X162807Y393075D01*
X162724Y393094D01*
X162650Y393117D01*
X162576Y393140D01*
X162511Y393168D01*
X162446Y393191D01*
X162396Y393218D01*
X162345Y393246D01*
X162303Y393269D01*
X162271Y393292D01*
X162243Y393311D01*
X162220Y393325D01*
X162211Y393334D01*
X162206Y393339D01*
X162141Y393394D01*
X162081Y393454D01*
X162026Y393519D01*
X161980Y393584D01*
X161938Y393648D01*
X161896Y393713D01*
X161832Y393838D01*
X161808Y393893D01*
X161785Y393949D01*
X161767Y393995D01*
X161753Y394037D01*
X161744Y394074D01*
X161735Y394097D01*
X161730Y394115D01*
Y394120D01*
X160449Y393815D01*
X160491Y393676D01*
X160542Y393542D01*
X160593Y393422D01*
X160644Y393306D01*
X160699Y393204D01*
X160755Y393107D01*
X160810Y393020D01*
X160861Y392941D01*
X160912Y392872D01*
X160958Y392812D01*
X161000Y392756D01*
X161036Y392715D01*
X161064Y392682D01*
X161087Y392659D01*
X161101Y392645D01*
X161106Y392641D01*
X161249Y392516D01*
X161397Y392409D01*
X161554Y392317D01*
X161711Y392238D01*
X161873Y392169D01*
X162030Y392114D01*
X162188Y392067D01*
X162335Y392030D01*
X162474Y392003D01*
X162604Y391979D01*
X162715Y391966D01*
X162816Y391952D01*
X162858D01*
X162899Y391947D01*
X162932D01*
X162959Y391942D01*
X163010D01*
X166001D01*
X163010D01*
X163135Y391947D01*
X163255Y391952D01*
X163491Y391979D01*
X163708Y392026D01*
X163916Y392081D01*
X164111Y392146D01*
X164286Y392225D01*
X164453Y392303D01*
X164601Y392386D01*
X164730Y392469D01*
X164846Y392548D01*
X164947Y392622D01*
X165031Y392691D01*
X165095Y392747D01*
X165142Y392793D01*
X165155Y392807D01*
X165169Y392821D01*
X165174Y392826D01*
X165179Y392830D01*
X165252Y392913D01*
X165322Y393001D01*
X165451Y393191D01*
X165558Y393385D01*
X165655Y393588D01*
X165733Y393796D01*
X165803Y394000D01*
X165853Y394203D01*
X165900Y394402D01*
X165932Y394587D01*
X165960Y394758D01*
X165969Y394836D01*
X165978Y394910D01*
X165983Y394980D01*
X165987Y395044D01*
X165992Y395104D01*
X165997Y395155D01*
Y395202D01*
X166001Y395239D01*
Y395308D01*
X165997Y395447D01*
X165992Y395585D01*
X165964Y395844D01*
X165927Y396089D01*
X165872Y396316D01*
X165812Y396528D01*
X165742Y396727D01*
X165669Y396903D01*
X165590Y397065D01*
X165516Y397208D01*
X165442Y397333D01*
X165405Y397388D01*
X165373Y397439D01*
X165340Y397485D01*
X165312Y397527D01*
X165285Y397564D01*
X165257Y397596D01*
X165239Y397624D01*
X165220Y397647D01*
X165202Y397665D01*
X165192Y397679D01*
X165183Y397684D01*
Y397689D01*
X165105Y397767D01*
X165026Y397841D01*
X164943Y397911D01*
X164860Y397975D01*
X164684Y398091D01*
X164513Y398192D01*
X164333Y398276D01*
X164161Y398345D01*
X163990Y398405D01*
X163829Y398447D01*
X163676Y398484D01*
X163537Y398512D01*
X163408Y398530D01*
X163353Y398539D01*
X163302Y398544D01*
X163255Y398549D01*
X163214Y398553D01*
X163177D01*
X163144Y398558D01*
X166001D01*
D02*
G37*
G36*
X159317Y398447D02*
X154204D01*
Y392049D01*
X155494D01*
Y394568D01*
X158027D01*
Y392049D01*
X159317D01*
Y398447D01*
D02*
G37*
G36*
X153298D02*
X148999D01*
Y392026D01*
D01*
Y393810D01*
X149003Y393671D01*
X149022Y393537D01*
X149050Y393408D01*
X149082Y393288D01*
X149123Y393177D01*
X149170Y393070D01*
X149221Y392978D01*
X149271Y392890D01*
X149322Y392812D01*
X149373Y392738D01*
X149419Y392682D01*
X149461Y392631D01*
X149493Y392590D01*
X149521Y392562D01*
X149540Y392543D01*
X149544Y392539D01*
X149650Y392446D01*
X149761Y392368D01*
X149882Y392303D01*
X150007Y392243D01*
X150127Y392192D01*
X150252Y392150D01*
X150376Y392118D01*
X150492Y392090D01*
X150603Y392067D01*
X150704Y392053D01*
X150797Y392040D01*
X150876Y392035D01*
X150940Y392030D01*
X150991Y392026D01*
X151033D01*
X151190Y392030D01*
X151342Y392044D01*
X151486Y392067D01*
X151624Y392095D01*
X151749Y392127D01*
X151869Y392164D01*
X151980Y392206D01*
X152078Y392248D01*
X152165Y392289D01*
X152248Y392331D01*
X152313Y392368D01*
X152373Y392400D01*
X152415Y392428D01*
X152447Y392451D01*
X152470Y392465D01*
X152475Y392469D01*
X152577Y392557D01*
X152669Y392659D01*
X152752Y392765D01*
X152822Y392881D01*
X152886Y393001D01*
X152942Y393121D01*
X152988Y393242D01*
X153030Y393362D01*
X153062Y393473D01*
X153090Y393579D01*
X153113Y393671D01*
X153127Y393755D01*
X153141Y393824D01*
X153145Y393852D01*
X153150Y393875D01*
Y393893D01*
X153155Y393907D01*
Y393917D01*
Y393921D01*
X151934Y394041D01*
X151925Y393944D01*
X151916Y393856D01*
X151897Y393773D01*
X151879Y393695D01*
X151860Y393625D01*
X151837Y393560D01*
X151814Y393505D01*
X151791Y393454D01*
X151768Y393413D01*
X151749Y393376D01*
X151731Y393343D01*
X151712Y393320D01*
X151698Y393297D01*
X151685Y393283D01*
X151680Y393279D01*
X151675Y393274D01*
X151629Y393232D01*
X151583Y393195D01*
X151532Y393168D01*
X151486Y393140D01*
X151379Y393098D01*
X151282Y393070D01*
X151194Y393057D01*
X151158Y393047D01*
X151125D01*
X151097Y393043D01*
X151060D01*
X150991Y393047D01*
X150922Y393052D01*
X150802Y393075D01*
X150695Y393112D01*
X150607Y393154D01*
X150575Y393172D01*
X150543Y393195D01*
X150515Y393214D01*
X150492Y393228D01*
X150473Y393246D01*
X150459Y393255D01*
X150455Y393260D01*
X150450Y393265D01*
X150413Y393306D01*
X150376Y393357D01*
X150321Y393454D01*
X150284Y393560D01*
X150256Y393662D01*
X150238Y393755D01*
X150233Y393792D01*
Y393824D01*
X150228Y393856D01*
Y393875D01*
Y393889D01*
Y393893D01*
X150233Y393963D01*
X150238Y394032D01*
X150270Y394171D01*
X150307Y394296D01*
X150353Y394411D01*
X150381Y394462D01*
X150404Y394508D01*
X150422Y394545D01*
X150441Y394582D01*
X150459Y394610D01*
X150473Y394628D01*
X150478Y394642D01*
X150483Y394647D01*
X150524Y394702D01*
X150580Y394772D01*
X150644Y394846D01*
X150723Y394924D01*
X150802Y395012D01*
X150889Y395095D01*
X151060Y395271D01*
X151148Y395354D01*
X151227Y395433D01*
X151301Y395502D01*
X151366Y395567D01*
X151421Y395618D01*
X151463Y395659D01*
X151490Y395682D01*
X151495Y395687D01*
X151500Y395692D01*
X151685Y395867D01*
X151856Y396034D01*
X152008Y396186D01*
X152151Y396334D01*
X152276Y396473D01*
X152392Y396598D01*
X152489Y396713D01*
X152577Y396820D01*
X152651Y396912D01*
X152715Y396995D01*
X152771Y397065D01*
X152812Y397120D01*
X152840Y397166D01*
X152863Y397199D01*
X152877Y397222D01*
X152882Y397226D01*
X152942Y397337D01*
X152997Y397444D01*
X153048Y397555D01*
X153095Y397661D01*
X153132Y397767D01*
X153164Y397864D01*
X153196Y397961D01*
X153219Y398054D01*
X153242Y398137D01*
X153256Y398211D01*
X153270Y398280D01*
X153279Y398336D01*
X153289Y398382D01*
X153293Y398419D01*
X153298Y398438D01*
Y398447D01*
D02*
G37*
%LPD*%
G36*
X163010Y391942D02*
D01*
D01*
D01*
D02*
G37*
G36*
X162899Y398553D02*
X162719Y398535D01*
X162548Y398512D01*
X162391Y398479D01*
X162238Y398438D01*
X162100Y398396D01*
X161970Y398350D01*
X161855Y398303D01*
X161748Y398257D01*
X161656Y398211D01*
X161577Y398165D01*
X161513Y398128D01*
X161462Y398096D01*
X161425Y398072D01*
X161402Y398054D01*
X161392Y398049D01*
X161272Y397948D01*
X161157Y397837D01*
X161055Y397716D01*
X160958Y397592D01*
X160870Y397462D01*
X160791Y397333D01*
X160722Y397203D01*
X160662Y397079D01*
X160606Y396963D01*
X160560Y396852D01*
X160519Y396750D01*
X160486Y396662D01*
X160463Y396593D01*
X160454Y396561D01*
X160445Y396538D01*
X160440Y396519D01*
X160436Y396505D01*
X160431Y396496D01*
Y398558D01*
X163089D01*
X162899Y398553D01*
D02*
G37*
G36*
X158027Y395650D02*
X155494D01*
Y398447D01*
X158027D01*
Y395650D01*
D02*
G37*
G36*
X151403Y397249D02*
X151361Y397189D01*
X151319Y397129D01*
X151278Y397079D01*
X151245Y397037D01*
X151213Y397000D01*
X151194Y396981D01*
X151190Y396972D01*
X151158Y396935D01*
X151111Y396889D01*
X151065Y396843D01*
X151010Y396787D01*
X150885Y396672D01*
X150760Y396552D01*
X150700Y396496D01*
X150644Y396441D01*
X150589Y396394D01*
X150543Y396353D01*
X150506Y396316D01*
X150473Y396288D01*
X150455Y396269D01*
X150450Y396265D01*
X150344Y396168D01*
X150247Y396075D01*
X150159Y395992D01*
X150080Y395914D01*
X150007Y395840D01*
X149942Y395770D01*
X149882Y395710D01*
X149831Y395655D01*
X149785Y395608D01*
X149748Y395567D01*
X149715Y395530D01*
X149688Y395498D01*
X149669Y395474D01*
X149655Y395461D01*
X149650Y395451D01*
X149646Y395447D01*
X149530Y395289D01*
X149429Y395141D01*
X149345Y395003D01*
X149308Y394938D01*
X149276Y394878D01*
X149248Y394827D01*
X149225Y394776D01*
X149202Y394735D01*
X149184Y394702D01*
X149174Y394670D01*
X149165Y394651D01*
X149156Y394638D01*
Y394633D01*
X149105Y394485D01*
X149063Y394337D01*
X149036Y394198D01*
X149017Y394074D01*
X149013Y394018D01*
X149008Y393967D01*
X149003Y393921D01*
X148999Y393884D01*
Y397310D01*
X151440D01*
X151403Y397249D01*
D02*
G37*
%LPC*%
G36*
X256278Y108560D02*
X251077D01*
Y101940D01*
Y108560D01*
X253638D01*
X253504Y108555D01*
X253375Y108551D01*
X253250Y108541D01*
X253130Y108523D01*
X253019Y108509D01*
X252917Y108490D01*
X252820Y108467D01*
X252732Y108449D01*
X252654Y108426D01*
X252584Y108407D01*
X252524Y108384D01*
X252473Y108370D01*
X252436Y108357D01*
X252404Y108343D01*
X252385Y108338D01*
X252381Y108333D01*
X252284Y108292D01*
X252196Y108241D01*
X252113Y108190D01*
X252034Y108139D01*
X251965Y108084D01*
X251900Y108033D01*
X251840Y107977D01*
X251784Y107927D01*
X251738Y107876D01*
X251697Y107834D01*
X251660Y107793D01*
X251632Y107755D01*
X251609Y107728D01*
X251595Y107705D01*
X251586Y107691D01*
X251581Y107686D01*
X251535Y107608D01*
X251493Y107524D01*
X251456Y107446D01*
X251424Y107363D01*
X251396Y107284D01*
X251373Y107210D01*
X251359Y107136D01*
X251341Y107071D01*
X251331Y107007D01*
X251322Y106946D01*
X251318Y106896D01*
X251313Y106854D01*
X251308Y106817D01*
Y106794D01*
Y106776D01*
Y106771D01*
X251313Y106632D01*
X251331Y106498D01*
X251364Y106369D01*
X251401Y106249D01*
X251442Y106138D01*
X251493Y106031D01*
X251549Y105934D01*
X251604Y105846D01*
X251655Y105763D01*
X251710Y105694D01*
X251761Y105629D01*
X251803Y105578D01*
X251840Y105541D01*
X251872Y105509D01*
X251891Y105490D01*
X251895Y105486D01*
X251983Y105416D01*
X252080Y105352D01*
X252187Y105287D01*
X252302Y105227D01*
X252418Y105171D01*
X252542Y105120D01*
X252663Y105074D01*
X252783Y105028D01*
X252894Y104991D01*
X253000Y104954D01*
X253097Y104922D01*
X253185Y104899D01*
X253255Y104880D01*
X253282Y104871D01*
X253305Y104866D01*
X253324Y104857D01*
X253338D01*
X253347Y104852D01*
X253351D01*
X253495Y104815D01*
X253629Y104783D01*
X253749Y104755D01*
X253855Y104728D01*
X253953Y104700D01*
X254036Y104677D01*
X254110Y104658D01*
X254174Y104640D01*
X254225Y104626D01*
X254272Y104612D01*
X254308Y104598D01*
X254341Y104589D01*
X254359Y104584D01*
X254378Y104580D01*
X254382Y104575D01*
X254387D01*
X254447Y104552D01*
X254503Y104529D01*
X254600Y104483D01*
X254683Y104432D01*
X254748Y104390D01*
X254794Y104348D01*
X254826Y104321D01*
X254849Y104302D01*
X254854Y104293D01*
X254900Y104233D01*
X254932Y104168D01*
X254956Y104103D01*
X254970Y104043D01*
X254983Y103988D01*
X254988Y103946D01*
Y103919D01*
Y103914D01*
Y103909D01*
X254983Y103845D01*
X254974Y103780D01*
X254960Y103724D01*
X254937Y103664D01*
X254886Y103563D01*
X254831Y103470D01*
X254799Y103433D01*
X254771Y103396D01*
X254743Y103369D01*
X254720Y103341D01*
X254697Y103322D01*
X254683Y103308D01*
X254674Y103299D01*
X254669Y103294D01*
X254609Y103248D01*
X254540Y103207D01*
X254466Y103174D01*
X254392Y103142D01*
X254313Y103119D01*
X254235Y103096D01*
X254082Y103063D01*
X254013Y103054D01*
X253943Y103045D01*
X253883Y103040D01*
X253832Y103036D01*
X253791Y103031D01*
X253731D01*
X253624Y103036D01*
X253523Y103045D01*
X253426Y103059D01*
X253333Y103077D01*
X253250Y103100D01*
X253176Y103124D01*
X253102Y103151D01*
X253042Y103179D01*
X252982Y103207D01*
X252936Y103234D01*
X252889Y103258D01*
X252857Y103281D01*
X252829Y103299D01*
X252811Y103313D01*
X252797Y103322D01*
X252792Y103327D01*
X252732Y103387D01*
X252672Y103452D01*
X252621Y103521D01*
X252575Y103595D01*
X252533Y103674D01*
X252496Y103752D01*
X252432Y103905D01*
X252409Y103974D01*
X252390Y104039D01*
X252372Y104099D01*
X252358Y104154D01*
X252348Y104196D01*
X252339Y104228D01*
X252334Y104247D01*
Y104256D01*
X251077Y104136D01*
X251105Y103942D01*
X251147Y103757D01*
X251193Y103586D01*
X251253Y103424D01*
X251313Y103281D01*
X251378Y103147D01*
X251442Y103022D01*
X251512Y102915D01*
X251576Y102818D01*
X251637Y102735D01*
X251697Y102661D01*
X251747Y102606D01*
X251789Y102559D01*
X251821Y102527D01*
X251840Y102504D01*
X251849Y102499D01*
X251979Y102402D01*
X252117Y102315D01*
X252265Y102240D01*
X252418Y102176D01*
X252570Y102120D01*
X252728Y102079D01*
X252880Y102042D01*
X253028Y102009D01*
X253167Y101986D01*
X253296Y101968D01*
X253416Y101959D01*
X253518Y101949D01*
X253560Y101945D01*
X253601D01*
X253633Y101940D01*
X253717D01*
X253869Y101945D01*
X254017Y101949D01*
X254156Y101963D01*
X254285Y101977D01*
X254405Y101995D01*
X254521Y102014D01*
X254627Y102032D01*
X254725Y102056D01*
X254808Y102079D01*
X254886Y102097D01*
X254951Y102116D01*
X255002Y102134D01*
X255048Y102148D01*
X255081Y102162D01*
X255099Y102167D01*
X255104Y102171D01*
X255205Y102217D01*
X255302Y102268D01*
X255390Y102324D01*
X255473Y102384D01*
X255552Y102439D01*
X255621Y102499D01*
X255686Y102559D01*
X255746Y102615D01*
X255797Y102670D01*
X255843Y102721D01*
X255880Y102767D01*
X255913Y102804D01*
X255936Y102837D01*
X255954Y102865D01*
X255963Y102879D01*
X255968Y102883D01*
X256024Y102976D01*
X256070Y103063D01*
X256111Y103156D01*
X256148Y103248D01*
X256176Y103336D01*
X256204Y103419D01*
X256222Y103503D01*
X256241Y103581D01*
X256250Y103651D01*
X256259Y103715D01*
X256269Y103771D01*
X256273Y103821D01*
X256278Y103858D01*
Y103914D01*
X256273Y104025D01*
X256269Y104131D01*
X256255Y104233D01*
X256236Y104330D01*
X256218Y104418D01*
X256195Y104501D01*
X256171Y104580D01*
X256148Y104649D01*
X256125Y104714D01*
X256102Y104769D01*
X256079Y104815D01*
X256061Y104857D01*
X256042Y104889D01*
X256028Y104913D01*
X256024Y104926D01*
X256019Y104931D01*
X255968Y105005D01*
X255917Y105079D01*
X255802Y105208D01*
X255742Y105268D01*
X255681Y105319D01*
X255626Y105370D01*
X255571Y105412D01*
X255515Y105453D01*
X255469Y105486D01*
X255423Y105513D01*
X255386Y105541D01*
X255353Y105560D01*
X255330Y105574D01*
X255316Y105578D01*
X255312Y105583D01*
X255224Y105629D01*
X255122Y105671D01*
X255016Y105717D01*
X254905Y105758D01*
X254674Y105837D01*
X254558Y105869D01*
X254447Y105906D01*
X254341Y105934D01*
X254244Y105962D01*
X254151Y105985D01*
X254073Y106008D01*
X254008Y106022D01*
X253962Y106036D01*
X253943Y106040D01*
X253929D01*
X253925Y106045D01*
X253920D01*
X253754Y106087D01*
X253596Y106128D01*
X253463Y106165D01*
X253338Y106207D01*
X253227Y106244D01*
X253130Y106281D01*
X253046Y106313D01*
X252973Y106346D01*
X252912Y106373D01*
X252861Y106396D01*
X252820Y106419D01*
X252788Y106438D01*
X252760Y106456D01*
X252746Y106466D01*
X252737Y106475D01*
X252732D01*
X252667Y106540D01*
X252621Y106604D01*
X252589Y106669D01*
X252566Y106729D01*
X252552Y106785D01*
X252547Y106826D01*
X252542Y106854D01*
Y106859D01*
Y106863D01*
X252547Y106910D01*
X252552Y106951D01*
X252575Y107030D01*
X252607Y107094D01*
X252644Y107150D01*
X252681Y107196D01*
X252714Y107228D01*
X252737Y107252D01*
X252746Y107256D01*
X252811Y107298D01*
X252875Y107335D01*
X252945Y107367D01*
X253019Y107395D01*
X253167Y107437D01*
X253305Y107464D01*
X253375Y107473D01*
X253435Y107478D01*
X253490Y107483D01*
X253536Y107487D01*
X253573Y107492D01*
X253726D01*
X253823Y107483D01*
X253906Y107473D01*
X253985Y107460D01*
X254059Y107441D01*
X254128Y107423D01*
X254188Y107404D01*
X254244Y107386D01*
X254290Y107363D01*
X254332Y107344D01*
X254369Y107326D01*
X254396Y107307D01*
X254419Y107293D01*
X254433Y107284D01*
X254443Y107279D01*
X254447Y107275D01*
X254498Y107233D01*
X254540Y107182D01*
X254618Y107071D01*
X254678Y106956D01*
X254729Y106840D01*
X254748Y106785D01*
X254762Y106734D01*
X254775Y106688D01*
X254785Y106646D01*
X254794Y106614D01*
X254799Y106591D01*
X254803Y106572D01*
Y106567D01*
X256093Y106623D01*
X256079Y106785D01*
X256056Y106937D01*
X256024Y107081D01*
X255977Y107215D01*
X255931Y107339D01*
X255876Y107455D01*
X255820Y107561D01*
X255760Y107654D01*
X255700Y107742D01*
X255644Y107816D01*
X255594Y107880D01*
X255547Y107931D01*
X255506Y107973D01*
X255478Y108005D01*
X255459Y108024D01*
X255450Y108028D01*
X255330Y108121D01*
X255201Y108204D01*
X255057Y108273D01*
X254914Y108338D01*
X254762Y108389D01*
X254609Y108430D01*
X254461Y108467D01*
X254318Y108495D01*
X254179Y108514D01*
X254054Y108532D01*
X253939Y108546D01*
X253837Y108551D01*
X253791Y108555D01*
X253754D01*
X253721Y108560D01*
X256278D01*
D01*
D02*
G37*
G36*
X243117Y108454D02*
X241827D01*
Y105934D01*
X239294D01*
Y108454D01*
X240560D01*
X238004D01*
Y102056D01*
X240560D01*
X239294D01*
Y104852D01*
X241827D01*
Y102056D01*
X243117D01*
Y108454D01*
D02*
G37*
G36*
X256911Y105934D02*
Y105911D01*
D01*
Y105934D01*
D02*
G37*
G36*
X247346Y108560D02*
X247282D01*
X247139Y108555D01*
X247000Y108551D01*
X246866Y108537D01*
X246736Y108518D01*
X246616Y108500D01*
X246500Y108481D01*
X246399Y108458D01*
X246302Y108435D01*
X246214Y108407D01*
X246135Y108384D01*
X246066Y108366D01*
X246010Y108347D01*
X245964Y108329D01*
X245932Y108315D01*
X245914Y108310D01*
X245904Y108306D01*
X245821Y108269D01*
X245738Y108227D01*
X245585Y108135D01*
X245442Y108038D01*
X245377Y107991D01*
X245317Y107945D01*
X245266Y107903D01*
X245215Y107862D01*
X245174Y107825D01*
X245137Y107793D01*
X245109Y107765D01*
X245091Y107746D01*
X245077Y107732D01*
X245072Y107728D01*
X244938Y107580D01*
X244823Y107427D01*
X244721Y107279D01*
X244638Y107145D01*
X244601Y107081D01*
X244568Y107025D01*
X244541Y106974D01*
X244522Y106933D01*
X244503Y106896D01*
X244490Y106873D01*
X244485Y106854D01*
X244480Y106849D01*
X244429Y106720D01*
X244383Y106591D01*
X244346Y106452D01*
X244314Y106313D01*
X244286Y106179D01*
X244258Y106040D01*
X244240Y105911D01*
X244226Y105782D01*
X244212Y105666D01*
X244203Y105555D01*
X244198Y105458D01*
X244194Y105375D01*
X244189Y105305D01*
Y108560D01*
D01*
D01*
Y101945D01*
Y105213D01*
X244194Y105070D01*
X244198Y104936D01*
X244226Y104672D01*
X244268Y104423D01*
X244319Y104191D01*
X244383Y103979D01*
X244457Y103780D01*
X244531Y103600D01*
X244610Y103438D01*
X244688Y103294D01*
X244725Y103230D01*
X244762Y103170D01*
X244799Y103114D01*
X244836Y103063D01*
X244869Y103017D01*
X244901Y102976D01*
X244929Y102939D01*
X244952Y102906D01*
X244975Y102879D01*
X244993Y102855D01*
X245012Y102837D01*
X245021Y102823D01*
X245030Y102818D01*
Y102814D01*
X245109Y102735D01*
X245197Y102661D01*
X245280Y102592D01*
X245368Y102527D01*
X245553Y102412D01*
X245742Y102310D01*
X245932Y102227D01*
X246117Y102157D01*
X246302Y102097D01*
X246482Y102056D01*
X246649Y102019D01*
X246806Y101991D01*
X246875Y101982D01*
X246944Y101972D01*
X247004Y101963D01*
X247064Y101959D01*
X247115Y101954D01*
X247162Y101949D01*
X247203D01*
X247236Y101945D01*
X250398D01*
D01*
X247300D01*
X247430Y101949D01*
X247559Y101954D01*
X247804Y101982D01*
X248031Y102023D01*
X248248Y102083D01*
X248447Y102148D01*
X248632Y102222D01*
X248803Y102301D01*
X248955Y102384D01*
X249089Y102462D01*
X249209Y102541D01*
X249316Y102615D01*
X249399Y102684D01*
X249436Y102712D01*
X249464Y102740D01*
X249492Y102763D01*
X249515Y102781D01*
X249529Y102795D01*
X249542Y102809D01*
X249547Y102814D01*
X249552Y102818D01*
X249630Y102902D01*
X249699Y102989D01*
X249769Y103082D01*
X249829Y103174D01*
X249944Y103369D01*
X250042Y103567D01*
X250125Y103766D01*
X250189Y103969D01*
X250245Y104168D01*
X250291Y104358D01*
X250328Y104538D01*
X250351Y104705D01*
X250365Y104783D01*
X250370Y104857D01*
X250379Y104922D01*
X250384Y104986D01*
X250388Y105042D01*
X250393Y105093D01*
Y105134D01*
X250398Y105171D01*
Y105384D01*
X250388Y105527D01*
X250361Y105795D01*
X250319Y106045D01*
X250264Y106281D01*
X250199Y106498D01*
X250129Y106701D01*
X250051Y106882D01*
X249972Y107048D01*
X249931Y107122D01*
X249894Y107191D01*
X249852Y107261D01*
X249815Y107321D01*
X249778Y107376D01*
X249746Y107432D01*
X249713Y107478D01*
X249681Y107520D01*
X249653Y107557D01*
X249626Y107589D01*
X249602Y107617D01*
X249584Y107640D01*
X249570Y107658D01*
X249556Y107672D01*
X249552Y107677D01*
X249547Y107682D01*
X249464Y107760D01*
X249381Y107834D01*
X249293Y107908D01*
X249205Y107973D01*
X249020Y108088D01*
X248835Y108190D01*
X248645Y108273D01*
X248456Y108347D01*
X248271Y108403D01*
X248095Y108449D01*
X247929Y108486D01*
X247776Y108514D01*
X247703Y108523D01*
X247638Y108532D01*
X247573Y108541D01*
X247518Y108546D01*
X247462Y108551D01*
X247416Y108555D01*
X247379D01*
X247346Y108560D01*
D02*
G37*
G36*
X256911Y102781D02*
Y102767D01*
D01*
Y102781D01*
D02*
G37*
G36*
X261996Y108454D02*
X256911D01*
Y107372D01*
X258811D01*
Y102056D01*
X260101D01*
Y107372D01*
X261996D01*
Y108454D01*
D02*
G37*
%LPD*%
G36*
X247444Y107450D02*
X247582Y107432D01*
X247712Y107404D01*
X247832Y107372D01*
X247948Y107330D01*
X248054Y107284D01*
X248151Y107233D01*
X248239Y107187D01*
X248317Y107136D01*
X248387Y107085D01*
X248442Y107039D01*
X248493Y106997D01*
X248530Y106965D01*
X248558Y106937D01*
X248576Y106919D01*
X248581Y106914D01*
X248669Y106808D01*
X248743Y106688D01*
X248807Y106563D01*
X248863Y106429D01*
X248909Y106295D01*
X248946Y106156D01*
X248978Y106022D01*
X249006Y105892D01*
X249025Y105768D01*
X249039Y105652D01*
X249052Y105546D01*
X249057Y105453D01*
X249062Y105412D01*
Y105379D01*
X249066Y105347D01*
Y105319D01*
Y105301D01*
Y105287D01*
Y105278D01*
Y105273D01*
X249062Y105070D01*
X249043Y104880D01*
X249020Y104705D01*
X248988Y104543D01*
X248951Y104395D01*
X248909Y104256D01*
X248863Y104131D01*
X248817Y104020D01*
X248770Y103923D01*
X248724Y103840D01*
X248682Y103766D01*
X248645Y103711D01*
X248613Y103664D01*
X248590Y103632D01*
X248572Y103609D01*
X248567Y103604D01*
X248470Y103507D01*
X248368Y103419D01*
X248267Y103345D01*
X248160Y103285D01*
X248054Y103230D01*
X247948Y103184D01*
X247846Y103147D01*
X247744Y103119D01*
X247652Y103096D01*
X247568Y103077D01*
X247490Y103068D01*
X247425Y103059D01*
X247370Y103054D01*
X247328Y103049D01*
X247296D01*
X247152Y103054D01*
X247018Y103073D01*
X246894Y103100D01*
X246769Y103137D01*
X246658Y103179D01*
X246551Y103225D01*
X246454Y103276D01*
X246367Y103331D01*
X246288Y103382D01*
X246219Y103433D01*
X246159Y103479D01*
X246112Y103521D01*
X246071Y103558D01*
X246043Y103586D01*
X246024Y103604D01*
X246020Y103609D01*
X245932Y103720D01*
X245853Y103840D01*
X245789Y103969D01*
X245733Y104103D01*
X245682Y104238D01*
X245641Y104376D01*
X245608Y104510D01*
X245585Y104640D01*
X245562Y104765D01*
X245548Y104880D01*
X245534Y104986D01*
X245530Y105074D01*
X245525Y105153D01*
X245520Y105181D01*
Y105208D01*
Y105227D01*
Y105241D01*
Y105250D01*
Y105255D01*
X245525Y105453D01*
X245544Y105643D01*
X245567Y105819D01*
X245595Y105980D01*
X245632Y106128D01*
X245673Y106262D01*
X245719Y106383D01*
X245765Y106494D01*
X245807Y106591D01*
X245853Y106674D01*
X245895Y106743D01*
X245932Y106803D01*
X245960Y106849D01*
X245987Y106877D01*
X246001Y106900D01*
X246006Y106905D01*
X246103Y107002D01*
X246200Y107085D01*
X246306Y107159D01*
X246413Y107224D01*
X246524Y107275D01*
X246630Y107321D01*
X246736Y107358D01*
X246833Y107386D01*
X246931Y107409D01*
X247018Y107427D01*
X247097Y107437D01*
X247162Y107446D01*
X247217Y107450D01*
X247259Y107455D01*
X247296D01*
X247444Y107450D01*
D02*
G37*
%LPC*%
G36*
X108308Y308250D02*
X101692D01*
Y302679D01*
D01*
Y305338D01*
X101697Y305148D01*
X101715Y304968D01*
X101739Y304797D01*
X101771Y304639D01*
X101812Y304487D01*
X101854Y304348D01*
X101900Y304219D01*
X101947Y304103D01*
X101993Y303997D01*
X102039Y303904D01*
X102085Y303826D01*
X102122Y303761D01*
X102155Y303710D01*
X102178Y303673D01*
X102196Y303650D01*
X102201Y303641D01*
X102303Y303521D01*
X102414Y303405D01*
X102534Y303304D01*
X102659Y303206D01*
X102788Y303119D01*
X102917Y303040D01*
X103047Y302971D01*
X103172Y302910D01*
X103287Y302855D01*
X103398Y302809D01*
X103500Y302767D01*
X103588Y302735D01*
X103657Y302712D01*
X103689Y302703D01*
X103713Y302693D01*
X103731Y302689D01*
X103745Y302684D01*
X103754Y302679D01*
X101692D01*
X103759D01*
X104156Y303932D01*
X104027Y303965D01*
X103907Y304002D01*
X103800Y304043D01*
X103694Y304085D01*
X103602Y304126D01*
X103518Y304173D01*
X103440Y304219D01*
X103375Y304260D01*
X103315Y304302D01*
X103264Y304339D01*
X103218Y304376D01*
X103186Y304408D01*
X103158Y304431D01*
X103135Y304450D01*
X103125Y304464D01*
X103121Y304468D01*
X103065Y304538D01*
X103014Y304612D01*
X102973Y304686D01*
X102936Y304764D01*
X102903Y304838D01*
X102876Y304912D01*
X102853Y304982D01*
X102839Y305046D01*
X102825Y305111D01*
X102816Y305171D01*
X102806Y305222D01*
X102802Y305264D01*
X102797Y305301D01*
Y305351D01*
X102802Y305481D01*
X102820Y305601D01*
X102843Y305717D01*
X102876Y305823D01*
X102917Y305925D01*
X102959Y306017D01*
X103005Y306100D01*
X103056Y306179D01*
X103102Y306248D01*
X103148Y306308D01*
X103190Y306364D01*
X103232Y306405D01*
X103264Y306438D01*
X103287Y306465D01*
X103306Y306479D01*
X103310Y306484D01*
X103417Y306563D01*
X103532Y306627D01*
X103662Y306687D01*
X103796Y306734D01*
X103939Y306775D01*
X104082Y306812D01*
X104226Y306840D01*
X104364Y306863D01*
X104498Y306882D01*
X104623Y306895D01*
X104739Y306905D01*
X104836Y306909D01*
X104882Y306914D01*
X104919D01*
X104951Y306919D01*
X104984D01*
X105002D01*
X105021D01*
X105030D01*
X105035D01*
X105243Y306914D01*
X105437Y306900D01*
X105612Y306877D01*
X105779Y306849D01*
X105927Y306817D01*
X106061Y306780D01*
X106186Y306738D01*
X106292Y306697D01*
X106389Y306660D01*
X106468Y306618D01*
X106537Y306581D01*
X106593Y306549D01*
X106634Y306521D01*
X106666Y306498D01*
X106685Y306484D01*
X106690Y306479D01*
X106782Y306392D01*
X106861Y306304D01*
X106925Y306207D01*
X106986Y306114D01*
X107036Y306017D01*
X107078Y305920D01*
X107110Y305828D01*
X107138Y305735D01*
X107161Y305652D01*
X107175Y305573D01*
X107189Y305504D01*
X107193Y305444D01*
X107198Y305398D01*
X107203Y305361D01*
Y305328D01*
X107198Y305231D01*
X107189Y305143D01*
X107175Y305056D01*
X107156Y304972D01*
X107133Y304898D01*
X107110Y304824D01*
X107083Y304760D01*
X107059Y304695D01*
X107032Y304644D01*
X107004Y304593D01*
X106981Y304552D01*
X106958Y304519D01*
X106939Y304492D01*
X106925Y304468D01*
X106916Y304459D01*
X106911Y304455D01*
X106856Y304390D01*
X106796Y304330D01*
X106731Y304274D01*
X106666Y304228D01*
X106602Y304186D01*
X106537Y304145D01*
X106412Y304080D01*
X106357Y304057D01*
X106301Y304034D01*
X106255Y304015D01*
X106214Y304002D01*
X106177Y303992D01*
X106153Y303983D01*
X106135Y303978D01*
X106130D01*
X106435Y302698D01*
X106574Y302740D01*
X106708Y302790D01*
X106828Y302841D01*
X106944Y302892D01*
X107046Y302948D01*
X107143Y303003D01*
X107231Y303058D01*
X107309Y303109D01*
X107378Y303160D01*
X107438Y303206D01*
X107494Y303248D01*
X107536Y303285D01*
X107568Y303313D01*
X107591Y303336D01*
X107605Y303350D01*
X107610Y303354D01*
X107734Y303498D01*
X107841Y303646D01*
X107933Y303803D01*
X108012Y303960D01*
X108081Y304122D01*
X108137Y304279D01*
X108183Y304436D01*
X108220Y304584D01*
X108247Y304723D01*
X108271Y304852D01*
X108285Y304963D01*
X108298Y305065D01*
Y305106D01*
X108303Y305148D01*
Y305180D01*
X108308Y305208D01*
Y305259D01*
X108303Y305384D01*
X108298Y305504D01*
X108271Y305740D01*
X108224Y305957D01*
X108169Y306165D01*
X108104Y306359D01*
X108026Y306535D01*
X107947Y306701D01*
X107864Y306849D01*
X107781Y306979D01*
X107702Y307094D01*
X107628Y307196D01*
X107559Y307279D01*
X107503Y307344D01*
X107457Y307390D01*
X107443Y307404D01*
X107429Y307418D01*
X107425Y307422D01*
X107420Y307427D01*
X107337Y307501D01*
X107249Y307570D01*
X107059Y307700D01*
X106865Y307806D01*
X106662Y307903D01*
X106454Y307982D01*
X106250Y308051D01*
X106047Y308102D01*
X105848Y308148D01*
X105663Y308181D01*
X105492Y308208D01*
X105414Y308218D01*
X105340Y308227D01*
X105270Y308231D01*
X105206Y308236D01*
X105146Y308241D01*
X105095Y308245D01*
X105049D01*
X105012Y308250D01*
X108308D01*
D02*
G37*
G36*
X108201Y301565D02*
X101803D01*
Y300275D01*
X104600D01*
Y297742D01*
X101803D01*
Y296453D01*
X108201D01*
Y301565D01*
D02*
G37*
G36*
X108224Y295061D02*
X105492D01*
X105552Y294895D01*
X105617Y294733D01*
X105691Y294576D01*
X105765Y294428D01*
X105839Y294289D01*
X105918Y294160D01*
X105996Y294039D01*
X106070Y293928D01*
X106139Y293827D01*
X106209Y293739D01*
X106269Y293660D01*
X106320Y293596D01*
X106361Y293545D01*
X106394Y293508D01*
X106412Y293485D01*
X106421Y293475D01*
X101803D01*
Y295061D01*
D01*
Y292250D01*
X108224D01*
Y293249D01*
X108118Y293291D01*
X108012Y293341D01*
X107910Y293397D01*
X107818Y293457D01*
X107725Y293522D01*
X107642Y293586D01*
X107563Y293651D01*
X107489Y293711D01*
X107425Y293776D01*
X107369Y293831D01*
X107318Y293882D01*
X107277Y293928D01*
X107244Y293965D01*
X107217Y293998D01*
X107203Y294016D01*
X107198Y294021D01*
X107120Y294127D01*
X107046Y294229D01*
X106981Y294326D01*
X106921Y294423D01*
X106865Y294511D01*
X106819Y294599D01*
X106777Y294677D01*
X106736Y294751D01*
X106704Y294821D01*
X106676Y294881D01*
X106657Y294932D01*
X106639Y294978D01*
X106625Y295015D01*
X106616Y295038D01*
X106606Y295056D01*
Y295061D01*
X108224D01*
D02*
G37*
%LPD*%
G36*
X104803Y308245D02*
X104665Y308241D01*
X104406Y308213D01*
X104161Y308176D01*
X103934Y308120D01*
X103722Y308060D01*
X103523Y307991D01*
X103347Y307917D01*
X103186Y307838D01*
X103042Y307764D01*
X102917Y307691D01*
X102862Y307654D01*
X102811Y307621D01*
X102765Y307589D01*
X102723Y307561D01*
X102686Y307533D01*
X102654Y307506D01*
X102626Y307487D01*
X102603Y307469D01*
X102585Y307450D01*
X102571Y307441D01*
X102566Y307432D01*
X102561D01*
X102483Y307353D01*
X102409Y307274D01*
X102339Y307191D01*
X102275Y307108D01*
X102159Y306932D01*
X102058Y306761D01*
X101974Y306581D01*
X101905Y306410D01*
X101845Y306239D01*
X101803Y306077D01*
X101766Y305925D01*
X101739Y305786D01*
X101720Y305657D01*
X101711Y305601D01*
X101706Y305550D01*
X101702Y305504D01*
X101697Y305462D01*
Y305425D01*
X101692Y305393D01*
Y308250D01*
X104942D01*
X104803Y308245D01*
D02*
G37*
G36*
X108201Y297742D02*
X105682D01*
Y300275D01*
X108201D01*
Y297742D01*
D02*
G37*
%LPC*%
G36*
X398308Y308839D02*
X391882D01*
D01*
X396052D01*
X395876Y308834D01*
X395714Y308816D01*
X395557Y308788D01*
X395409Y308751D01*
X395275Y308710D01*
X395146Y308659D01*
X395030Y308608D01*
X394924Y308557D01*
X394831Y308502D01*
X394748Y308451D01*
X394674Y308405D01*
X394614Y308358D01*
X394568Y308321D01*
X394535Y308294D01*
X394512Y308275D01*
X394508Y308271D01*
X394401Y308160D01*
X394309Y308049D01*
X394230Y307933D01*
X394161Y307813D01*
X394106Y307697D01*
X394055Y307582D01*
X394018Y307471D01*
X393985Y307365D01*
X393962Y307267D01*
X393944Y307175D01*
X393930Y307096D01*
X393921Y307022D01*
X393916Y306967D01*
X393911Y306925D01*
Y306810D01*
X393921Y306731D01*
X393944Y306574D01*
X393976Y306435D01*
X393995Y306366D01*
X394013Y306306D01*
X394036Y306250D01*
X394055Y306199D01*
X394073Y306158D01*
X394087Y306116D01*
X394101Y306089D01*
X394110Y306066D01*
X394115Y306052D01*
X394119Y306047D01*
X393028Y306246D01*
Y308557D01*
X391882D01*
Y305317D01*
X395210Y304688D01*
X395354Y305677D01*
X395271Y305756D01*
X395201Y305839D01*
X395136Y305922D01*
X395086Y306001D01*
X395039Y306084D01*
X395002Y306163D01*
X394970Y306236D01*
X394947Y306311D01*
X394924Y306375D01*
X394910Y306435D01*
X394901Y306491D01*
X394896Y306537D01*
X394891Y306574D01*
X394887Y306602D01*
Y306625D01*
X394891Y306703D01*
X394901Y306777D01*
X394915Y306842D01*
X394933Y306912D01*
X394979Y307027D01*
X395007Y307078D01*
X395035Y307124D01*
X395062Y307166D01*
X395090Y307203D01*
X395113Y307235D01*
X395136Y307263D01*
X395155Y307281D01*
X395169Y307295D01*
X395178Y307304D01*
X395183Y307309D01*
X395243Y307355D01*
X395308Y307397D01*
X395372Y307434D01*
X395446Y307466D01*
X395520Y307489D01*
X395594Y307512D01*
X395737Y307545D01*
X395807Y307554D01*
X395867Y307563D01*
X395922Y307568D01*
X395973Y307572D01*
X396015Y307577D01*
X396043D01*
X396066D01*
X396070D01*
X396186Y307572D01*
X396292Y307568D01*
X396394Y307554D01*
X396486Y307535D01*
X396570Y307517D01*
X396648Y307494D01*
X396717Y307466D01*
X396782Y307443D01*
X396838Y307420D01*
X396884Y307392D01*
X396926Y307369D01*
X396958Y307351D01*
X396986Y307332D01*
X397004Y307323D01*
X397013Y307314D01*
X397018Y307309D01*
X397073Y307258D01*
X397120Y307207D01*
X397161Y307152D01*
X397198Y307096D01*
X397226Y307041D01*
X397254Y306990D01*
X397291Y306888D01*
X397309Y306796D01*
X397318Y306759D01*
X397323Y306726D01*
X397328Y306699D01*
Y306662D01*
X397323Y306602D01*
X397318Y306542D01*
X397291Y306426D01*
X397254Y306324D01*
X397207Y306236D01*
X397161Y306167D01*
X397143Y306135D01*
X397124Y306112D01*
X397110Y306093D01*
X397096Y306079D01*
X397092Y306070D01*
X397087Y306066D01*
X397041Y306019D01*
X396990Y305978D01*
X396884Y305913D01*
X396773Y305858D01*
X396667Y305816D01*
X396574Y305788D01*
X396533Y305779D01*
X396500Y305774D01*
X396472Y305765D01*
X396449D01*
X396436Y305760D01*
X396431D01*
X396560Y304540D01*
D01*
X396708Y304563D01*
X396842Y304600D01*
X396976Y304642D01*
X397096Y304688D01*
X397212Y304743D01*
X397314Y304799D01*
X397411Y304854D01*
X397499Y304914D01*
X397577Y304970D01*
X397642Y305025D01*
X397702Y305072D01*
X397748Y305118D01*
X397785Y305155D01*
X397813Y305182D01*
X397831Y305201D01*
X397836Y305206D01*
X397919Y305312D01*
X397993Y305427D01*
X398053Y305548D01*
X398109Y305668D01*
X398155Y305788D01*
X398192Y305908D01*
X398224Y306024D01*
X398248Y306135D01*
X398266Y306241D01*
X398285Y306338D01*
X398294Y306426D01*
X398298Y306500D01*
X398303Y306565D01*
X398308Y306611D01*
Y305908D01*
Y308839D01*
D02*
G37*
G36*
X398197Y303458D02*
X391799D01*
Y302169D01*
X394318D01*
Y299635D01*
X391799D01*
Y298345D01*
X398197D01*
Y303458D01*
D02*
G37*
G36*
X398308Y297231D02*
X391693D01*
D01*
X396241D01*
X395844Y295979D01*
X395973Y295946D01*
X396093Y295909D01*
X396200Y295868D01*
X396306Y295826D01*
X396399Y295784D01*
X396482Y295738D01*
X396560Y295692D01*
X396625Y295650D01*
X396685Y295609D01*
X396736Y295572D01*
X396782Y295535D01*
X396814Y295502D01*
X396842Y295479D01*
X396865Y295461D01*
X396875Y295447D01*
X396879Y295442D01*
X396935Y295373D01*
X396986Y295299D01*
X397027Y295225D01*
X397064Y295146D01*
X397096Y295072D01*
X397124Y294998D01*
X397147Y294929D01*
X397161Y294864D01*
X397175Y294800D01*
X397184Y294740D01*
X397194Y294689D01*
X397198Y294647D01*
X397203Y294610D01*
Y294559D01*
X397198Y294430D01*
X397180Y294310D01*
X397157Y294194D01*
X397124Y294088D01*
X397083Y293986D01*
X397041Y293894D01*
X396995Y293810D01*
X396944Y293732D01*
X396898Y293662D01*
X396852Y293602D01*
X396810Y293547D01*
X396768Y293505D01*
X396736Y293473D01*
X396713Y293445D01*
X396694Y293431D01*
X396690Y293427D01*
X396583Y293348D01*
X396468Y293283D01*
X396338Y293223D01*
X396204Y293177D01*
X396061Y293136D01*
X395918Y293099D01*
X395774Y293071D01*
X395636Y293048D01*
X395502Y293029D01*
X395377Y293015D01*
X395261Y293006D01*
X395164Y293001D01*
X395118Y292997D01*
X395081D01*
X395049Y292992D01*
X395016D01*
X394998D01*
X394979D01*
X394970D01*
X394965D01*
X394757Y292997D01*
X394563Y293011D01*
X394388Y293034D01*
X394221Y293062D01*
X394073Y293094D01*
X393939Y293131D01*
X393814Y293172D01*
X393708Y293214D01*
X393611Y293251D01*
X393532Y293293D01*
X393463Y293330D01*
X393408Y293362D01*
X393366Y293390D01*
X393334Y293413D01*
X393315Y293427D01*
X393310Y293431D01*
X393218Y293519D01*
X393139Y293607D01*
X393075Y293704D01*
X393015Y293797D01*
X392964Y293894D01*
X392922Y293991D01*
X392890Y294083D01*
X392862Y294176D01*
X392839Y294259D01*
X392825Y294337D01*
X392811Y294407D01*
X392807Y294467D01*
X392802Y294513D01*
X392797Y294550D01*
Y294582D01*
X392802Y294680D01*
X392811Y294767D01*
X392825Y294855D01*
X392844Y294938D01*
X392867Y295012D01*
X392890Y295086D01*
X392918Y295151D01*
X392941Y295216D01*
X392968Y295267D01*
X392996Y295317D01*
X393019Y295359D01*
X393042Y295391D01*
X393061Y295419D01*
X393075Y295442D01*
X393084Y295452D01*
X393088Y295456D01*
X393144Y295521D01*
X393204Y295581D01*
X393269Y295636D01*
X393334Y295683D01*
X393398Y295724D01*
X393463Y295766D01*
X393588Y295831D01*
X393643Y295854D01*
X393699Y295877D01*
X393745Y295895D01*
X393787Y295909D01*
X393824Y295918D01*
X393847Y295928D01*
X393865Y295932D01*
X393870D01*
X393565Y297213D01*
X393426Y297171D01*
X393292Y297120D01*
X393172Y297069D01*
X393056Y297019D01*
X392954Y296963D01*
X392857Y296908D01*
X392770Y296852D01*
X392691Y296801D01*
X392622Y296751D01*
X392561Y296704D01*
X392506Y296663D01*
X392464Y296626D01*
X392432Y296598D01*
X392409Y296575D01*
X392395Y296561D01*
X392391Y296556D01*
X392266Y296413D01*
X392159Y296265D01*
X392067Y296108D01*
X391988Y295951D01*
X391919Y295789D01*
X391864Y295632D01*
X391817Y295475D01*
X391780Y295327D01*
X391753Y295188D01*
X391729Y295059D01*
X391716Y294948D01*
X391702Y294846D01*
Y294804D01*
X391697Y294763D01*
Y294730D01*
X391693Y294703D01*
Y294767D01*
Y294652D01*
X391697Y294527D01*
X391702Y294407D01*
X391729Y294171D01*
X391776Y293954D01*
X391831Y293746D01*
X391896Y293552D01*
X391974Y293376D01*
X392053Y293209D01*
X392136Y293062D01*
X392220Y292932D01*
X392298Y292817D01*
X392372Y292715D01*
X392441Y292632D01*
X392497Y292567D01*
X392543Y292521D01*
X392557Y292507D01*
X392571Y292493D01*
X392575Y292488D01*
X392580Y292484D01*
X392663Y292410D01*
X392751Y292340D01*
X392941Y292211D01*
X393135Y292105D01*
X393338Y292008D01*
X393546Y291929D01*
X393750Y291860D01*
X393953Y291809D01*
X394152Y291763D01*
X394337Y291730D01*
X394508Y291702D01*
X394586Y291693D01*
X394660Y291684D01*
X394730Y291679D01*
X394794Y291675D01*
X394855Y291670D01*
X394905Y291665D01*
X394952D01*
X394989Y291661D01*
X395058D01*
X395196Y291665D01*
X395335Y291670D01*
X395594Y291698D01*
X395839Y291735D01*
X396066Y291790D01*
X396278Y291850D01*
X396477Y291920D01*
X396653Y291994D01*
X396814Y292072D01*
X396958Y292146D01*
X397083Y292220D01*
X397138Y292257D01*
X397189Y292290D01*
X397235Y292322D01*
X397277Y292350D01*
X397314Y292377D01*
X397346Y292405D01*
X397374Y292424D01*
X397397Y292442D01*
X397416Y292461D01*
X397429Y292470D01*
X397434Y292479D01*
X397439D01*
X397517Y292558D01*
X397591Y292636D01*
X397660Y292719D01*
X397725Y292803D01*
X397841Y292978D01*
X397943Y293149D01*
X398026Y293330D01*
X398095Y293501D01*
X398155Y293672D01*
X398197Y293834D01*
X398234Y293986D01*
X398261Y294125D01*
X398280Y294254D01*
X398289Y294310D01*
X398294Y294361D01*
X398298Y294407D01*
X398303Y294448D01*
Y294485D01*
X398308Y294518D01*
Y291661D01*
D01*
Y297231D01*
D02*
G37*
%LPD*%
G36*
Y306648D02*
X398303Y306750D01*
X398298Y306851D01*
X398271Y307041D01*
X398229Y307221D01*
X398174Y307388D01*
X398114Y307540D01*
X398040Y307684D01*
X397966Y307813D01*
X397882Y307929D01*
X397804Y308030D01*
X397730Y308123D01*
X397656Y308201D01*
X397596Y308261D01*
X397540Y308312D01*
X397499Y308349D01*
X397471Y308368D01*
X397462Y308377D01*
X397341Y308460D01*
X397221Y308529D01*
X397101Y308589D01*
X396981Y308645D01*
X396861Y308691D01*
X396745Y308728D01*
X396630Y308756D01*
X396523Y308784D01*
X396426Y308802D01*
X396334Y308816D01*
X396255Y308825D01*
X396186Y308830D01*
X396130Y308834D01*
X396089Y308839D01*
X398308D01*
Y306648D01*
D02*
G37*
G36*
X398197Y299635D02*
X395400D01*
Y302169D01*
X398197D01*
Y299635D01*
D02*
G37*
G36*
X398308Y294573D02*
X398303Y294763D01*
X398285Y294943D01*
X398261Y295114D01*
X398229Y295271D01*
X398187Y295424D01*
X398146Y295562D01*
X398100Y295692D01*
X398053Y295807D01*
X398007Y295914D01*
X397961Y296006D01*
X397915Y296085D01*
X397878Y296150D01*
X397845Y296200D01*
X397822Y296237D01*
X397804Y296261D01*
X397799Y296270D01*
X397697Y296390D01*
X397587Y296506D01*
X397466Y296607D01*
X397341Y296704D01*
X397212Y296792D01*
X397083Y296871D01*
X396953Y296940D01*
X396828Y297000D01*
X396713Y297056D01*
X396602Y297102D01*
X396500Y297143D01*
X396412Y297176D01*
X396343Y297199D01*
X396311Y297208D01*
X396287Y297217D01*
X396269Y297222D01*
X396255Y297227D01*
X396246Y297231D01*
X398308D01*
Y294573D01*
D02*
G37*
%LPC*%
G36*
X243653Y398558D02*
X243616D01*
X243449Y398553D01*
X243288Y398530D01*
X243135Y398502D01*
X242992Y398465D01*
X242853Y398419D01*
X242728Y398368D01*
X242613Y398317D01*
X242507Y398262D01*
X242414Y398206D01*
X242326Y398151D01*
X242257Y398105D01*
X242197Y398059D01*
X242150Y398022D01*
X242113Y397989D01*
X242095Y397971D01*
X242086Y397966D01*
X241975Y397850D01*
X241882Y397735D01*
X241799Y397615D01*
X241725Y397490D01*
X241670Y397370D01*
X241619Y397249D01*
X241577Y397134D01*
X241545Y397023D01*
X241517Y396921D01*
X241499Y396829D01*
X241485Y396741D01*
X241476Y396672D01*
X241471Y396612D01*
X241466Y396565D01*
Y396588D01*
Y396528D01*
X241471Y396422D01*
X241480Y396320D01*
X241499Y396223D01*
X241517Y396131D01*
X241540Y396043D01*
X241568Y395960D01*
X241600Y395886D01*
X241628Y395816D01*
X241660Y395756D01*
X241693Y395701D01*
X241721Y395650D01*
X241744Y395613D01*
X241762Y395581D01*
X241781Y395558D01*
X241790Y395544D01*
X241795Y395539D01*
X241859Y395465D01*
X241929Y395400D01*
X241998Y395336D01*
X242072Y395285D01*
X242141Y395234D01*
X242215Y395192D01*
X242289Y395155D01*
X242358Y395123D01*
X242423Y395095D01*
X242483Y395072D01*
X242534Y395049D01*
X242580Y395035D01*
X242622Y395026D01*
X242650Y395017D01*
X242668Y395012D01*
X242673D01*
X242590Y394966D01*
X242511Y394915D01*
X242437Y394864D01*
X242368Y394809D01*
X242303Y394758D01*
X242243Y394702D01*
X242137Y394591D01*
X242049Y394476D01*
X241975Y394365D01*
X241915Y394254D01*
X241864Y394152D01*
X241827Y394050D01*
X241799Y393958D01*
X241776Y393880D01*
X241762Y393806D01*
X241753Y393745D01*
X241748Y393704D01*
Y393676D01*
Y393667D01*
X241753Y393556D01*
X241767Y393450D01*
X241790Y393348D01*
X241818Y393251D01*
X241855Y393158D01*
X241892Y393070D01*
X241933Y392987D01*
X241975Y392913D01*
X242017Y392844D01*
X242058Y392784D01*
X242095Y392733D01*
X242132Y392687D01*
X242160Y392650D01*
X242183Y392627D01*
X242197Y392608D01*
X242201Y392604D01*
X242308Y392502D01*
X242419Y392414D01*
X242539Y392336D01*
X242659Y392271D01*
X242779Y392215D01*
X242899Y392164D01*
X243015Y392127D01*
X243131Y392100D01*
X243237Y392072D01*
X243334Y392058D01*
X243422Y392044D01*
X243500Y392035D01*
X243561Y392030D01*
X243607Y392026D01*
X241466D01*
X243745D01*
X243843Y392035D01*
X244023Y392058D01*
X244106Y392072D01*
X244185Y392090D01*
X244258Y392104D01*
X244328Y392123D01*
X244388Y392141D01*
X244443Y392160D01*
X244490Y392178D01*
X244531Y392192D01*
X244564Y392206D01*
X244587Y392215D01*
X244601Y392220D01*
X244605Y392225D01*
X244758Y392303D01*
X244823Y392349D01*
X244887Y392396D01*
X244947Y392437D01*
X245003Y392483D01*
X245054Y392530D01*
X245095Y392571D01*
X245137Y392613D01*
X245174Y392650D01*
X245202Y392682D01*
X245225Y392715D01*
X245248Y392738D01*
X245262Y392756D01*
X245266Y392765D01*
X245271Y392770D01*
X245312Y392839D01*
X245354Y392909D01*
X245424Y393061D01*
X245484Y393218D01*
X245534Y393366D01*
X245557Y393431D01*
X245571Y393496D01*
X245590Y393551D01*
X245599Y393602D01*
X245608Y393644D01*
X245618Y393671D01*
X245622Y393695D01*
Y393699D01*
X244494Y393889D01*
X244485Y393815D01*
X244471Y393741D01*
X244453Y393676D01*
X244434Y393616D01*
X244411Y393556D01*
X244388Y393505D01*
X244365Y393459D01*
X244342Y393417D01*
X244319Y393380D01*
X244300Y393348D01*
X244277Y393320D01*
X244263Y393297D01*
X244245Y393279D01*
X244235Y393265D01*
X244231Y393260D01*
X244226Y393255D01*
X244185Y393218D01*
X244138Y393181D01*
X244046Y393126D01*
X243953Y393089D01*
X243870Y393061D01*
X243796Y393043D01*
X243764Y393038D01*
X243736D01*
X243718Y393033D01*
X243685D01*
X243570Y393043D01*
X243473Y393066D01*
X243385Y393094D01*
X243311Y393131D01*
X243251Y393168D01*
X243209Y393195D01*
X243181Y393218D01*
X243172Y393228D01*
X243107Y393306D01*
X243061Y393390D01*
X243024Y393473D01*
X243001Y393556D01*
X242987Y393630D01*
X242983Y393658D01*
Y393685D01*
X242978Y393708D01*
Y393727D01*
Y393736D01*
Y393741D01*
X242983Y393810D01*
X242987Y393875D01*
X243001Y393940D01*
X243020Y393995D01*
X243061Y394101D01*
X243107Y394189D01*
X243135Y394226D01*
X243158Y394258D01*
X243181Y394286D01*
X243200Y394309D01*
X243218Y394328D01*
X243232Y394342D01*
X243237Y394346D01*
X243242Y394351D01*
X243292Y394393D01*
X243348Y394425D01*
X243408Y394453D01*
X243473Y394480D01*
X243598Y394517D01*
X243722Y394540D01*
X243778Y394550D01*
X243833Y394554D01*
X243879Y394559D01*
X243921Y394564D01*
X244004D01*
X244138Y395562D01*
X244023Y395530D01*
X243916Y395507D01*
X243819Y395493D01*
X243736Y395479D01*
X243671Y395474D01*
X243644D01*
X243621Y395470D01*
X243579D01*
X243514Y395474D01*
X243449Y395484D01*
X243389Y395493D01*
X243334Y395511D01*
X243232Y395558D01*
X243144Y395604D01*
X243071Y395655D01*
X243043Y395678D01*
X243020Y395701D01*
X242997Y395719D01*
X242983Y395729D01*
X242978Y395738D01*
X242973Y395742D01*
X242927Y395793D01*
X242890Y395853D01*
X242858Y395914D01*
X242830Y395974D01*
X242784Y396094D01*
X242756Y396214D01*
X242742Y396265D01*
X242738Y396316D01*
X242733Y396362D01*
X242728Y396399D01*
X242724Y396431D01*
Y396459D01*
Y396473D01*
Y396478D01*
X242728Y396565D01*
X242733Y396653D01*
X242747Y396732D01*
X242765Y396806D01*
X242784Y396875D01*
X242807Y396940D01*
X242830Y396995D01*
X242853Y397051D01*
X242881Y397097D01*
X242904Y397139D01*
X242927Y397171D01*
X242946Y397203D01*
X242964Y397226D01*
X242978Y397240D01*
X242983Y397249D01*
X242987Y397254D01*
X243038Y397305D01*
X243089Y397347D01*
X243140Y397388D01*
X243195Y397421D01*
X243251Y397448D01*
X243302Y397471D01*
X243403Y397504D01*
X243491Y397527D01*
X243528Y397532D01*
X243561Y397536D01*
X243588Y397541D01*
X243625D01*
X243690Y397536D01*
X243750Y397532D01*
X243866Y397504D01*
X243967Y397467D01*
X244055Y397421D01*
X244129Y397379D01*
X244157Y397360D01*
X244180Y397342D01*
X244198Y397328D01*
X244212Y397314D01*
X244221Y397310D01*
X244226Y397305D01*
X244268Y397259D01*
X244309Y397208D01*
X244374Y397092D01*
X244430Y396977D01*
X244466Y396866D01*
X244485Y396815D01*
X244494Y396764D01*
X244508Y396722D01*
X244513Y396681D01*
X244522Y396648D01*
Y396625D01*
X244527Y396612D01*
Y396607D01*
X245715Y396755D01*
X245692Y396903D01*
X245659Y397042D01*
X245622Y397175D01*
X245576Y397296D01*
X245520Y397411D01*
X245465Y397522D01*
X245410Y397619D01*
X245350Y397707D01*
X245294Y397786D01*
X245238Y397860D01*
X245188Y397920D01*
X245146Y397966D01*
X245109Y398008D01*
X245077Y398035D01*
X245058Y398054D01*
X245054Y398059D01*
X244943Y398146D01*
X244827Y398225D01*
X244707Y398290D01*
X244587Y398345D01*
X244466Y398396D01*
X244346Y398438D01*
X244231Y398470D01*
X244120Y398493D01*
X244014Y398516D01*
X243921Y398530D01*
X243833Y398544D01*
X243759Y398549D01*
X243699Y398553D01*
X243653Y398558D01*
D02*
G37*
G36*
X258534D02*
X252963D01*
X255621D01*
X255432Y398553D01*
X255252Y398535D01*
X255081Y398512D01*
X254923Y398479D01*
X254771Y398438D01*
X254632Y398396D01*
X254503Y398350D01*
X254387Y398303D01*
X254281Y398257D01*
X254188Y398211D01*
X254110Y398165D01*
X254045Y398128D01*
X253994Y398096D01*
X253957Y398072D01*
X253934Y398054D01*
X253925Y398049D01*
X253805Y397948D01*
X253689Y397837D01*
X253587Y397716D01*
X253490Y397592D01*
X253402Y397462D01*
X253324Y397333D01*
X253255Y397203D01*
X253194Y397079D01*
X253139Y396963D01*
X253093Y396852D01*
X253051Y396750D01*
X253019Y396662D01*
X252996Y396593D01*
X252986Y396561D01*
X252977Y396538D01*
X252973Y396519D01*
X252968Y396505D01*
X252963Y396496D01*
Y396505D01*
Y396491D01*
X254216Y396094D01*
X254248Y396223D01*
X254285Y396343D01*
X254327Y396450D01*
X254369Y396556D01*
X254410Y396648D01*
X254456Y396732D01*
X254503Y396810D01*
X254544Y396875D01*
X254586Y396935D01*
X254623Y396986D01*
X254660Y397032D01*
X254692Y397065D01*
X254715Y397092D01*
X254734Y397115D01*
X254748Y397125D01*
X254752Y397129D01*
X254822Y397185D01*
X254896Y397236D01*
X254970Y397277D01*
X255048Y397314D01*
X255122Y397347D01*
X255196Y397374D01*
X255265Y397397D01*
X255330Y397411D01*
X255395Y397425D01*
X255455Y397434D01*
X255506Y397444D01*
X255547Y397448D01*
X255584Y397453D01*
X255635D01*
X255765Y397448D01*
X255885Y397430D01*
X256000Y397407D01*
X256107Y397374D01*
X256208Y397333D01*
X256301Y397291D01*
X256384Y397245D01*
X256463Y397194D01*
X256532Y397148D01*
X256592Y397102D01*
X256648Y397060D01*
X256689Y397018D01*
X256722Y396986D01*
X256749Y396963D01*
X256763Y396944D01*
X256768Y396940D01*
X256846Y396833D01*
X256911Y396718D01*
X256971Y396588D01*
X257017Y396454D01*
X257059Y396311D01*
X257096Y396168D01*
X257124Y396025D01*
X257147Y395886D01*
X257165Y395752D01*
X257179Y395627D01*
X257188Y395511D01*
X257193Y395414D01*
X257198Y395368D01*
Y395331D01*
X257202Y395299D01*
Y395266D01*
Y395248D01*
Y395229D01*
Y395220D01*
Y395215D01*
X257198Y395007D01*
X257184Y394813D01*
X257161Y394638D01*
X257133Y394471D01*
X257101Y394323D01*
X257064Y394189D01*
X257022Y394064D01*
X256980Y393958D01*
X256943Y393861D01*
X256902Y393782D01*
X256865Y393713D01*
X256833Y393658D01*
X256805Y393616D01*
X256782Y393584D01*
X256768Y393565D01*
X256763Y393560D01*
X256675Y393468D01*
X256588Y393390D01*
X256490Y393325D01*
X256398Y393265D01*
X256301Y393214D01*
X256204Y393172D01*
X256111Y393140D01*
X256019Y393112D01*
X255936Y393089D01*
X255857Y393075D01*
X255788Y393061D01*
X255728Y393057D01*
X255681Y393052D01*
X255644Y393047D01*
X255612D01*
X255515Y393052D01*
X255427Y393061D01*
X255339Y393075D01*
X255256Y393094D01*
X255182Y393117D01*
X255108Y393140D01*
X255044Y393168D01*
X254979Y393191D01*
X254928Y393218D01*
X254877Y393246D01*
X254835Y393269D01*
X254803Y393292D01*
X254775Y393311D01*
X254752Y393325D01*
X254743Y393334D01*
X254738Y393339D01*
X254674Y393394D01*
X254614Y393454D01*
X254558Y393519D01*
X254512Y393584D01*
X254470Y393648D01*
X254429Y393713D01*
X254364Y393838D01*
X254341Y393893D01*
X254318Y393949D01*
X254299Y393995D01*
X254285Y394037D01*
X254276Y394074D01*
X254267Y394097D01*
X254262Y394115D01*
Y394120D01*
X252982Y393815D01*
X253023Y393676D01*
X253074Y393542D01*
X253125Y393422D01*
X253176Y393306D01*
X253231Y393204D01*
X253287Y393107D01*
X253342Y393020D01*
X253393Y392941D01*
X253444Y392872D01*
X253490Y392812D01*
X253532Y392756D01*
X253569Y392715D01*
X253597Y392682D01*
X253620Y392659D01*
X253634Y392645D01*
X253638Y392641D01*
X253782Y392516D01*
X253929Y392409D01*
X254087Y392317D01*
X254244Y392238D01*
X254406Y392169D01*
X254563Y392114D01*
X254720Y392067D01*
X254868Y392030D01*
X255007Y392003D01*
X255136Y391979D01*
X255247Y391966D01*
X255349Y391952D01*
X255390D01*
X255432Y391947D01*
X255464D01*
X255492Y391942D01*
X255543D01*
X258534D01*
X255543D01*
X255668Y391947D01*
X255788Y391952D01*
X256024Y391979D01*
X256241Y392026D01*
X256449Y392081D01*
X256643Y392146D01*
X256819Y392225D01*
X256985Y392303D01*
X257133Y392386D01*
X257262Y392469D01*
X257378Y392548D01*
X257480Y392622D01*
X257563Y392691D01*
X257628Y392747D01*
X257674Y392793D01*
X257688Y392807D01*
X257702Y392821D01*
X257706Y392826D01*
X257711Y392830D01*
X257785Y392913D01*
X257854Y393001D01*
X257984Y393191D01*
X258090Y393385D01*
X258187Y393588D01*
X258266Y393796D01*
X258335Y394000D01*
X258386Y394203D01*
X258432Y394402D01*
X258464Y394587D01*
X258492Y394758D01*
X258501Y394836D01*
X258511Y394910D01*
X258515Y394980D01*
X258520Y395044D01*
X258524Y395104D01*
X258529Y395155D01*
Y395202D01*
X258534Y395239D01*
Y395308D01*
X258529Y395447D01*
X258524Y395585D01*
X258497Y395844D01*
X258460Y396089D01*
X258404Y396316D01*
X258344Y396528D01*
X258275Y396727D01*
X258201Y396903D01*
X258122Y397065D01*
X258048Y397208D01*
X257974Y397333D01*
X257937Y397388D01*
X257905Y397439D01*
X257873Y397485D01*
X257845Y397527D01*
X257817Y397564D01*
X257789Y397596D01*
X257771Y397624D01*
X257752Y397647D01*
X257734Y397665D01*
X257725Y397679D01*
X257715Y397684D01*
Y397689D01*
X257637Y397767D01*
X257558Y397841D01*
X257475Y397911D01*
X257392Y397975D01*
X257216Y398091D01*
X257045Y398192D01*
X256865Y398276D01*
X256694Y398345D01*
X256523Y398405D01*
X256361Y398447D01*
X256208Y398484D01*
X256070Y398512D01*
X255940Y398530D01*
X255885Y398539D01*
X255834Y398544D01*
X255788Y398549D01*
X255746Y398553D01*
X255709D01*
X255677Y398558D01*
X258534D01*
D02*
G37*
G36*
X251849Y398447D02*
X246736D01*
Y392049D01*
X248026D01*
Y394568D01*
X250559D01*
Y392049D01*
X251849D01*
Y398447D01*
D02*
G37*
%LPD*%
G36*
X255543Y391942D02*
D01*
D01*
D01*
D02*
G37*
G36*
X250559Y395650D02*
X248026D01*
Y398447D01*
X250559D01*
Y395650D01*
D02*
G37*
D10*
X122500Y237500D02*
G03*
X122500Y237500I-1000J0D01*
G01*
Y167500D02*
G03*
X122500Y167500I-1000J0D01*
G01*
X141000Y332000D02*
G03*
X141000Y332000I-1000J0D01*
G01*
X143500Y217500D02*
G03*
X143500Y217500I-1000J0D01*
G01*
Y147500D02*
G03*
X143500Y147500I-1000J0D01*
G01*
X158000Y127000D02*
G03*
X158000Y127000I-1000J0D01*
G01*
X395000Y188500D02*
G03*
X395000Y188500I-1000J0D01*
G01*
X183500Y130000D02*
G03*
X183500Y130000I-1000J0D01*
G01*
X318500Y110000D02*
G03*
X318500Y110000I-1000J0D01*
G01*
X351159Y176717D02*
G03*
X370741Y176717I9791J-36717D01*
G01*
X198500Y149500D02*
G03*
X198500Y149500I-1000J0D01*
G01*
X380500Y242500D02*
G03*
X380500Y242500I-1000J0D01*
G01*
X308500Y379500D02*
G03*
X308500Y379500I-1000J0D01*
G01*
X213500D02*
G03*
X213500Y379500I-1000J0D01*
G01*
X121500Y357500D02*
G03*
X121500Y357500I-1000J0D01*
G01*
X380500Y337500D02*
G03*
X380500Y337500I-1000J0D01*
G01*
X350950Y176500D02*
Y196500D01*
X370950Y176500D02*
Y196500D01*
D11*
X322000Y180000D02*
G03*
X322000Y180000I-2000J0D01*
G01*
D12*
X121158Y168123D02*
Y166624D01*
X122158D01*
X123657D02*
X122657D01*
X123657Y167624D01*
Y167874D01*
X123407Y168123D01*
X122907D01*
X122657Y167874D01*
X121412Y238228D02*
Y236728D01*
X122412D01*
X122912D02*
X123411D01*
X123161D01*
Y238228D01*
X122912Y237978D01*
X152400Y343891D02*
Y343642D01*
X152900Y343142D01*
X153400Y343642D01*
Y343891D01*
X152900Y343142D02*
Y342392D01*
X153899D02*
X154399D01*
X154149D01*
Y343891D01*
X153899Y343642D01*
X289580Y147304D02*
X289331Y147054D01*
Y146554D01*
X289580Y146304D01*
X290580D01*
X290830Y146554D01*
Y147054D01*
X290580Y147304D01*
Y147803D02*
X290830Y148053D01*
Y148553D01*
X290580Y148803D01*
X289580D01*
X289331Y148553D01*
Y148053D01*
X289580Y147803D01*
X289830D01*
X290080Y148053D01*
Y148803D01*
X351520Y252964D02*
X351270Y253214D01*
X350770D01*
X350520Y252964D01*
Y251964D01*
X350770Y251714D01*
X351270D01*
X351520Y251964D01*
X352020Y251714D02*
X352519D01*
X352269D01*
Y253214D01*
X352020Y252964D01*
X353269D02*
X353519Y253214D01*
X354019D01*
X354269Y252964D01*
Y251964D01*
X354019Y251714D01*
X353519D01*
X353269Y251964D01*
Y252964D01*
X234462Y146796D02*
X234212Y146546D01*
Y146046D01*
X234462Y145796D01*
X235462D01*
X235712Y146046D01*
Y146546D01*
X235462Y146796D01*
X235712Y147296D02*
Y147795D01*
Y147545D01*
X234212D01*
X234462Y147296D01*
X235712Y148545D02*
Y149045D01*
Y148795D01*
X234212D01*
X234462Y148545D01*
X351520Y305542D02*
X351270Y305791D01*
X350770D01*
X350520Y305542D01*
Y304542D01*
X350770Y304292D01*
X351270D01*
X351520Y304542D01*
X352020Y304292D02*
X352519D01*
X352269D01*
Y305791D01*
X352020Y305542D01*
X354269Y304292D02*
X353269D01*
X354269Y305292D01*
Y305542D01*
X354019Y305791D01*
X353519D01*
X353269Y305542D01*
X146542Y183114D02*
X146292Y183363D01*
X145792D01*
X145542Y183114D01*
Y182114D01*
X145792Y181864D01*
X146292D01*
X146542Y182114D01*
X147042Y181864D02*
X147541D01*
X147291D01*
Y183363D01*
X147042Y183114D01*
X148291D02*
X148541Y183363D01*
X149041D01*
X149291Y183114D01*
Y182864D01*
X149041Y182614D01*
X148791D01*
X149041D01*
X149291Y182364D01*
Y182114D01*
X149041Y181864D01*
X148541D01*
X148291Y182114D01*
X299486Y351520D02*
X299237Y351270D01*
Y350770D01*
X299486Y350520D01*
X300486D01*
X300736Y350770D01*
Y351270D01*
X300486Y351520D01*
X300736Y352020D02*
Y352519D01*
Y352269D01*
X299237D01*
X299486Y352020D01*
X300736Y354019D02*
X299237D01*
X299986Y353269D01*
Y354269D01*
X246908Y351520D02*
X246658Y351270D01*
Y350770D01*
X246908Y350520D01*
X247908D01*
X248158Y350770D01*
Y351270D01*
X247908Y351520D01*
X248158Y352020D02*
Y352519D01*
Y352269D01*
X246658D01*
X246908Y352020D01*
X246658Y354269D02*
Y353269D01*
X247408D01*
X247158Y353769D01*
Y354019D01*
X247408Y354269D01*
X247908D01*
X248158Y354019D01*
Y353519D01*
X247908Y353269D01*
X146542Y258044D02*
X146292Y258293D01*
X145792D01*
X145542Y258044D01*
Y257044D01*
X145792Y256794D01*
X146292D01*
X146542Y257044D01*
X147042Y256794D02*
X147541D01*
X147291D01*
Y258293D01*
X147042Y258044D01*
X149291Y258293D02*
X148791Y258044D01*
X148291Y257544D01*
Y257044D01*
X148541Y256794D01*
X149041D01*
X149291Y257044D01*
Y257294D01*
X149041Y257544D01*
X148291D01*
X212110Y351520D02*
X211861Y351270D01*
Y350770D01*
X212110Y350520D01*
X213110D01*
X213360Y350770D01*
Y351270D01*
X213110Y351520D01*
X213360Y352020D02*
Y352519D01*
Y352269D01*
X211861D01*
X212110Y352020D01*
X211861Y353269D02*
Y354269D01*
X212110D01*
X213110Y353269D01*
X213360D01*
X308356Y146558D02*
X306856D01*
Y147308D01*
X307106Y147558D01*
X307606D01*
X307856Y147308D01*
Y146558D01*
Y147058D02*
X308356Y147558D01*
Y148057D02*
Y148557D01*
Y148307D01*
X306856D01*
X307106Y148057D01*
X147558Y235438D02*
X147308Y235688D01*
X146808D01*
X146558Y235438D01*
Y234438D01*
X146808Y234188D01*
X147308D01*
X147558Y234438D01*
X148057Y234188D02*
X148557D01*
X148307D01*
Y235688D01*
X148057Y235438D01*
X147304Y217912D02*
X147054Y218162D01*
X146554D01*
X146304Y217912D01*
Y216912D01*
X146554Y216662D01*
X147054D01*
X147304Y216912D01*
X148803Y216662D02*
X147803D01*
X148803Y217662D01*
Y217912D01*
X148553Y218162D01*
X148053D01*
X147803Y217912D01*
X147304Y200386D02*
X147054Y200636D01*
X146554D01*
X146304Y200386D01*
Y199386D01*
X146554Y199136D01*
X147054D01*
X147304Y199386D01*
X147803Y200386D02*
X148053Y200636D01*
X148553D01*
X148803Y200386D01*
Y200136D01*
X148553Y199886D01*
X148303D01*
X148553D01*
X148803Y199636D01*
Y199386D01*
X148553Y199136D01*
X148053D01*
X147803Y199386D01*
X128778Y203937D02*
Y202688D01*
X129028Y202438D01*
X129528D01*
X129778Y202688D01*
Y203937D01*
X130278Y202438D02*
X130777D01*
X130527D01*
Y203937D01*
X130278Y203688D01*
X108696Y210546D02*
X108446Y210795D01*
X107946D01*
X107696Y210546D01*
Y209546D01*
X107946Y209296D01*
X108446D01*
X108696Y209546D01*
X109945Y209296D02*
Y210795D01*
X109195Y210046D01*
X110195D01*
X147304Y130536D02*
X147054Y130786D01*
X146554D01*
X146304Y130536D01*
Y129536D01*
X146554Y129286D01*
X147054D01*
X147304Y129536D01*
X148803Y130786D02*
X147803D01*
Y130036D01*
X148303Y130286D01*
X148553D01*
X148803Y130036D01*
Y129536D01*
X148553Y129286D01*
X148053D01*
X147803Y129536D01*
X147304Y148062D02*
X147054Y148312D01*
X146554D01*
X146304Y148062D01*
Y147062D01*
X146554Y146812D01*
X147054D01*
X147304Y147062D01*
X148803Y148312D02*
X148303Y148062D01*
X147803Y147562D01*
Y147062D01*
X148053Y146812D01*
X148553D01*
X148803Y147062D01*
Y147312D01*
X148553Y147562D01*
X147803D01*
X147304Y165588D02*
X147054Y165837D01*
X146554D01*
X146304Y165588D01*
Y164588D01*
X146554Y164338D01*
X147054D01*
X147304Y164588D01*
X147803Y165837D02*
X148803D01*
Y165588D01*
X147803Y164588D01*
Y164338D01*
X108696Y140442D02*
X108446Y140691D01*
X107946D01*
X107696Y140442D01*
Y139442D01*
X107946Y139192D01*
X108446D01*
X108696Y139442D01*
X109195Y140442D02*
X109445Y140691D01*
X109945D01*
X110195Y140442D01*
Y140192D01*
X109945Y139942D01*
X110195Y139692D01*
Y139442D01*
X109945Y139192D01*
X109445D01*
X109195Y139442D01*
Y139692D01*
X109445Y139942D01*
X109195Y140192D01*
Y140442D01*
X109445Y139942D02*
X109945D01*
X128524Y134087D02*
Y132838D01*
X128774Y132588D01*
X129274D01*
X129524Y132838D01*
Y134087D01*
X131023Y132588D02*
X130023D01*
X131023Y133588D01*
Y133838D01*
X130773Y134087D01*
X130273D01*
X130023Y133838D01*
X124480Y296910D02*
X124230Y296660D01*
Y296160D01*
X124480Y295910D01*
X125480D01*
X125730Y296160D01*
Y296660D01*
X125480Y296910D01*
X124230Y297409D02*
X125730D01*
X124980D01*
Y298409D01*
X124230D01*
X125730D01*
Y298909D02*
Y299409D01*
Y299159D01*
X124230D01*
X124480Y298909D01*
X125980Y300159D02*
Y301158D01*
X124230Y302658D02*
Y302158D01*
Y302408D01*
X125480D01*
X125730Y302158D01*
Y301908D01*
X125480Y301658D01*
X125730Y304157D02*
Y303158D01*
X124730Y304157D01*
X124480D01*
X124230Y303907D01*
Y303408D01*
X124480Y303158D01*
X151876Y375646D02*
X151626Y375896D01*
X151126D01*
X150876Y375646D01*
Y374646D01*
X151126Y374396D01*
X151626D01*
X151876Y374646D01*
X152375Y375896D02*
Y374396D01*
Y375146D01*
X153375D01*
Y375896D01*
Y374396D01*
X154875D02*
X153875D01*
X154875Y375396D01*
Y375646D01*
X154625Y375896D01*
X154125D01*
X153875Y375646D01*
X155374Y374146D02*
X156374D01*
X157874Y375896D02*
X157374D01*
X157624D01*
Y374646D01*
X157374Y374396D01*
X157124D01*
X156874Y374646D01*
X159373Y374396D02*
X158374D01*
X159373Y375396D01*
Y375646D01*
X159123Y375896D01*
X158624D01*
X158374Y375646D01*
X246872D02*
X246622Y375896D01*
X246122D01*
X245872Y375646D01*
Y374646D01*
X246122Y374396D01*
X246622D01*
X246872Y374646D01*
X247372Y375896D02*
Y374396D01*
Y375146D01*
X248371D01*
Y375896D01*
Y374396D01*
X248871Y375646D02*
X249121Y375896D01*
X249621D01*
X249871Y375646D01*
Y375396D01*
X249621Y375146D01*
X249371D01*
X249621D01*
X249871Y374896D01*
Y374646D01*
X249621Y374396D01*
X249121D01*
X248871Y374646D01*
X250371Y374146D02*
X251370D01*
X252870Y375896D02*
X252370D01*
X252620D01*
Y374646D01*
X252370Y374396D01*
X252120D01*
X251870Y374646D01*
X254369Y374396D02*
X253370D01*
X254369Y375396D01*
Y375646D01*
X254119Y375896D01*
X253619D01*
X253370Y375646D01*
X341868D02*
X341618Y375896D01*
X341118D01*
X340868Y375646D01*
Y374646D01*
X341118Y374396D01*
X341618D01*
X341868Y374646D01*
X342368Y375896D02*
Y374396D01*
Y375146D01*
X343367D01*
Y375896D01*
Y374396D01*
X344617D02*
Y375896D01*
X343867Y375146D01*
X344867D01*
X345367Y374146D02*
X346366D01*
X347866Y375896D02*
X347366D01*
X347616D01*
Y374646D01*
X347366Y374396D01*
X347116D01*
X346866Y374646D01*
X349365Y374396D02*
X348366D01*
X349365Y375396D01*
Y375646D01*
X349115Y375896D01*
X348615D01*
X348366Y375646D01*
X374416Y296656D02*
X374166Y296406D01*
Y295906D01*
X374416Y295656D01*
X375416D01*
X375666Y295906D01*
Y296406D01*
X375416Y296656D01*
X374166Y297155D02*
X375666D01*
X374916D01*
Y298155D01*
X374166D01*
X375666D01*
X374166Y299655D02*
Y298655D01*
X374916D01*
X374666Y299155D01*
Y299405D01*
X374916Y299655D01*
X375416D01*
X375666Y299405D01*
Y298905D01*
X375416Y298655D01*
X375916Y300154D02*
Y301154D01*
X374166Y302654D02*
Y302154D01*
Y302404D01*
X375416D01*
X375666Y302154D01*
Y301904D01*
X375416Y301654D01*
X375666Y304153D02*
Y303154D01*
X374666Y304153D01*
X374416D01*
X374166Y303903D01*
Y303403D01*
X374416Y303154D01*
X144256Y307574D02*
X144006Y307824D01*
X143506D01*
X143256Y307574D01*
Y306574D01*
X143506Y306324D01*
X144006D01*
X144256Y306574D01*
X144755Y307824D02*
Y306324D01*
Y307074D01*
X145755D01*
Y307824D01*
Y306324D01*
X146255D02*
X146755D01*
X146505D01*
Y307824D01*
X146255Y307574D01*
X147505Y306074D02*
X148504D01*
X149004Y306324D02*
Y307824D01*
X149754D01*
X150004Y307574D01*
Y307074D01*
X149754Y306824D01*
X149004D01*
X149504D02*
X150004Y306324D01*
X150504Y307824D02*
X151503D01*
Y307574D01*
X150504Y306574D01*
Y306324D01*
X176804Y349234D02*
X176555Y348984D01*
Y348484D01*
X176804Y348234D01*
X177804D01*
X178054Y348484D01*
Y348984D01*
X177804Y349234D01*
X176555Y349734D02*
X178054D01*
X177304D01*
Y350733D01*
X176555D01*
X178054D01*
Y352233D02*
Y351233D01*
X177054Y352233D01*
X176804D01*
X176555Y351983D01*
Y351483D01*
X176804Y351233D01*
X178304Y352733D02*
Y353732D01*
X178054Y354232D02*
X176555D01*
Y354982D01*
X176804Y355232D01*
X177304D01*
X177554Y354982D01*
Y354232D01*
Y354732D02*
X178054Y355232D01*
X176555Y355732D02*
Y356731D01*
X176804D01*
X177804Y355732D01*
X178054D01*
X264434Y349234D02*
X264184Y348984D01*
Y348484D01*
X264434Y348234D01*
X265434D01*
X265684Y348484D01*
Y348984D01*
X265434Y349234D01*
X264184Y349734D02*
X265684D01*
X264934D01*
Y350733D01*
X264184D01*
X265684D01*
X264434Y351233D02*
X264184Y351483D01*
Y351983D01*
X264434Y352233D01*
X264684D01*
X264934Y351983D01*
Y351733D01*
Y351983D01*
X265184Y352233D01*
X265434D01*
X265684Y351983D01*
Y351483D01*
X265434Y351233D01*
X265934Y352733D02*
Y353732D01*
X265684Y354232D02*
X264184D01*
Y354982D01*
X264434Y355232D01*
X264934D01*
X265184Y354982D01*
Y354232D01*
Y354732D02*
X265684Y355232D01*
X264184Y355732D02*
Y356731D01*
X264434D01*
X265434Y355732D01*
X265684D01*
X334284Y349234D02*
X334035Y348984D01*
Y348484D01*
X334284Y348234D01*
X335284D01*
X335534Y348484D01*
Y348984D01*
X335284Y349234D01*
X334035Y349734D02*
X335534D01*
X334784D01*
Y350733D01*
X334035D01*
X335534D01*
Y351983D02*
X334035D01*
X334784Y351233D01*
Y352233D01*
X335784Y352733D02*
Y353732D01*
X335534Y354232D02*
X334035D01*
Y354982D01*
X334284Y355232D01*
X334784D01*
X335034Y354982D01*
Y354232D01*
Y354732D02*
X335534Y355232D01*
X334035Y355732D02*
Y356731D01*
X334284D01*
X335284Y355732D01*
X335534D01*
X349234Y288016D02*
X348984Y288265D01*
X348484D01*
X348234Y288016D01*
Y287016D01*
X348484Y286766D01*
X348984D01*
X349234Y287016D01*
X349734Y288265D02*
Y286766D01*
Y287516D01*
X350733D01*
Y288265D01*
Y286766D01*
X352233Y288265D02*
X351233D01*
Y287516D01*
X351733Y287766D01*
X351983D01*
X352233Y287516D01*
Y287016D01*
X351983Y286766D01*
X351483D01*
X351233Y287016D01*
X352733Y286516D02*
X353732D01*
X354232Y286766D02*
Y288265D01*
X354982D01*
X355232Y288016D01*
Y287516D01*
X354982Y287266D01*
X354232D01*
X354732D02*
X355232Y286766D01*
X355732Y288265D02*
X356731D01*
Y288016D01*
X355732Y287016D01*
Y286766D01*
X144256Y325608D02*
X144006Y325858D01*
X143506D01*
X143256Y325608D01*
Y324608D01*
X143506Y324358D01*
X144006D01*
X144256Y324608D01*
X144755Y325858D02*
Y324358D01*
Y325108D01*
X145755D01*
Y325858D01*
Y324358D01*
X146255D02*
X146755D01*
X146505D01*
Y325858D01*
X146255Y325608D01*
X147505Y324108D02*
X148504D01*
X149004Y324358D02*
Y325858D01*
X149754D01*
X150004Y325608D01*
Y325108D01*
X149754Y324858D01*
X149004D01*
X149504D02*
X150004Y324358D01*
X150504Y325608D02*
X150754Y325858D01*
X151253D01*
X151503Y325608D01*
Y325358D01*
X151253Y325108D01*
X151503Y324858D01*
Y324608D01*
X151253Y324358D01*
X150754D01*
X150504Y324608D01*
Y324858D01*
X150754Y325108D01*
X150504Y325358D01*
Y325608D01*
X150754Y325108D02*
X151253D01*
X194330Y349234D02*
X194081Y348984D01*
Y348484D01*
X194330Y348234D01*
X195330D01*
X195580Y348484D01*
Y348984D01*
X195330Y349234D01*
X194081Y349734D02*
X195580D01*
X194830D01*
Y350733D01*
X194081D01*
X195580D01*
Y352233D02*
Y351233D01*
X194580Y352233D01*
X194330D01*
X194081Y351983D01*
Y351483D01*
X194330Y351233D01*
X195830Y352733D02*
Y353732D01*
X195580Y354232D02*
X194081D01*
Y354982D01*
X194330Y355232D01*
X194830D01*
X195080Y354982D01*
Y354232D01*
Y354732D02*
X195580Y355232D01*
X194330Y355732D02*
X194081Y355981D01*
Y356481D01*
X194330Y356731D01*
X194580D01*
X194830Y356481D01*
X195080Y356731D01*
X195330D01*
X195580Y356481D01*
Y355981D01*
X195330Y355732D01*
X195080D01*
X194830Y355981D01*
X194580Y355732D01*
X194330D01*
X194830Y355981D02*
Y356481D01*
X281960Y349234D02*
X281710Y348984D01*
Y348484D01*
X281960Y348234D01*
X282960D01*
X283210Y348484D01*
Y348984D01*
X282960Y349234D01*
X281710Y349734D02*
X283210D01*
X282460D01*
Y350733D01*
X281710D01*
X283210D01*
X281960Y351233D02*
X281710Y351483D01*
Y351983D01*
X281960Y352233D01*
X282210D01*
X282460Y351983D01*
Y351733D01*
Y351983D01*
X282710Y352233D01*
X282960D01*
X283210Y351983D01*
Y351483D01*
X282960Y351233D01*
X283460Y352733D02*
Y353732D01*
X283210Y354232D02*
X281710D01*
Y354982D01*
X281960Y355232D01*
X282460D01*
X282710Y354982D01*
Y354232D01*
Y354732D02*
X283210Y355232D01*
X281960Y355732D02*
X281710Y355981D01*
Y356481D01*
X281960Y356731D01*
X282210D01*
X282460Y356481D01*
X282710Y356731D01*
X282960D01*
X283210Y356481D01*
Y355981D01*
X282960Y355732D01*
X282710D01*
X282460Y355981D01*
X282210Y355732D01*
X281960D01*
X282460Y355981D02*
Y356481D01*
X351810Y349234D02*
X351561Y348984D01*
Y348484D01*
X351810Y348234D01*
X352810D01*
X353060Y348484D01*
Y348984D01*
X352810Y349234D01*
X351561Y349734D02*
X353060D01*
X352310D01*
Y350733D01*
X351561D01*
X353060D01*
Y351983D02*
X351561D01*
X352310Y351233D01*
Y352233D01*
X353310Y352733D02*
Y353732D01*
X353060Y354232D02*
X351561D01*
Y354982D01*
X351810Y355232D01*
X352310D01*
X352560Y354982D01*
Y354232D01*
Y354732D02*
X353060Y355232D01*
X351810Y355732D02*
X351561Y355981D01*
Y356481D01*
X351810Y356731D01*
X352060D01*
X352310Y356481D01*
X352560Y356731D01*
X352810D01*
X353060Y356481D01*
Y355981D01*
X352810Y355732D01*
X352560D01*
X352310Y355981D01*
X352060Y355732D01*
X351810D01*
X352310Y355981D02*
Y356481D01*
X349234Y270744D02*
X348984Y270993D01*
X348484D01*
X348234Y270744D01*
Y269744D01*
X348484Y269494D01*
X348984D01*
X349234Y269744D01*
X349734Y270993D02*
Y269494D01*
Y270244D01*
X350733D01*
Y270993D01*
Y269494D01*
X352233Y270993D02*
X351233D01*
Y270244D01*
X351733Y270494D01*
X351983D01*
X352233Y270244D01*
Y269744D01*
X351983Y269494D01*
X351483D01*
X351233Y269744D01*
X352733Y269244D02*
X353732D01*
X354232Y269494D02*
Y270993D01*
X354982D01*
X355232Y270744D01*
Y270244D01*
X354982Y269994D01*
X354232D01*
X354732D02*
X355232Y269494D01*
X355732Y270744D02*
X355981Y270993D01*
X356481D01*
X356731Y270744D01*
Y270494D01*
X356481Y270244D01*
X356731Y269994D01*
Y269744D01*
X356481Y269494D01*
X355981D01*
X355732Y269744D01*
Y269994D01*
X355981Y270244D01*
X355732Y270494D01*
Y270744D01*
X355981Y270244D02*
X356481D01*
X143748Y278110D02*
X143498Y278360D01*
X142998D01*
X142748Y278110D01*
Y277110D01*
X142998Y276860D01*
X143498D01*
X143748Y277110D01*
X144248Y278360D02*
Y276860D01*
Y277610D01*
X145247D01*
Y278360D01*
Y276860D01*
X145747D02*
X146247D01*
X145997D01*
Y278360D01*
X145747Y278110D01*
X146997Y276610D02*
X147996D01*
X149496Y278110D02*
X149246Y278360D01*
X148746D01*
X148496Y278110D01*
Y277110D01*
X148746Y276860D01*
X149246D01*
X149496Y277110D01*
X150995Y276860D02*
X149996D01*
X150995Y277860D01*
Y278110D01*
X150745Y278360D01*
X150246D01*
X149996Y278110D01*
X151495D02*
X151745Y278360D01*
X152245D01*
X152495Y278110D01*
Y277860D01*
X152245Y277610D01*
X151995D01*
X152245D01*
X152495Y277360D01*
Y277110D01*
X152245Y276860D01*
X151745D01*
X151495Y277110D01*
X105902Y365740D02*
X105652Y365989D01*
X105152D01*
X104902Y365740D01*
Y364740D01*
X105152Y364490D01*
X105652D01*
X105902Y364740D01*
X106402Y365989D02*
Y364490D01*
Y365240D01*
X107401D01*
Y365989D01*
Y364490D01*
X108901D02*
X107901D01*
X108901Y365490D01*
Y365740D01*
X108651Y365989D01*
X108151D01*
X107901Y365740D01*
X109401Y364240D02*
X110400D01*
X111900Y365740D02*
X111650Y365989D01*
X111150D01*
X110900Y365740D01*
Y364740D01*
X111150Y364490D01*
X111650D01*
X111900Y364740D01*
X113399Y364490D02*
X112400D01*
X113399Y365490D01*
Y365740D01*
X113149Y365989D01*
X112649D01*
X112400Y365740D01*
X113899D02*
X114149Y365989D01*
X114649D01*
X114899Y365740D01*
Y365490D01*
X114649Y365240D01*
X114399D01*
X114649D01*
X114899Y364990D01*
Y364740D01*
X114649Y364490D01*
X114149D01*
X113899Y364740D01*
X226044Y353040D02*
X225794Y353289D01*
X225294D01*
X225044Y353040D01*
Y352040D01*
X225294Y351790D01*
X225794D01*
X226044Y352040D01*
X226544Y353289D02*
Y351790D01*
Y352540D01*
X227543D01*
Y353289D01*
Y351790D01*
X228043Y353040D02*
X228293Y353289D01*
X228793D01*
X229043Y353040D01*
Y352790D01*
X228793Y352540D01*
X228543D01*
X228793D01*
X229043Y352290D01*
Y352040D01*
X228793Y351790D01*
X228293D01*
X228043Y352040D01*
X229543Y351540D02*
X230542D01*
X232042Y353040D02*
X231792Y353289D01*
X231292D01*
X231042Y353040D01*
Y352040D01*
X231292Y351790D01*
X231792D01*
X232042Y352040D01*
X233541Y351790D02*
X232542D01*
X233541Y352790D01*
Y353040D01*
X233291Y353289D01*
X232792D01*
X232542Y353040D01*
X234041D02*
X234291Y353289D01*
X234791D01*
X235041Y353040D01*
Y352790D01*
X234791Y352540D01*
X234541D01*
X234791D01*
X235041Y352290D01*
Y352040D01*
X234791Y351790D01*
X234291D01*
X234041Y352040D01*
X313420Y353040D02*
X313170Y353289D01*
X312670D01*
X312420Y353040D01*
Y352040D01*
X312670Y351790D01*
X313170D01*
X313420Y352040D01*
X313920Y353289D02*
Y351790D01*
Y352540D01*
X314919D01*
Y353289D01*
Y351790D01*
X316169D02*
Y353289D01*
X315419Y352540D01*
X316419D01*
X316919Y351540D02*
X317918D01*
X319418Y353040D02*
X319168Y353289D01*
X318668D01*
X318418Y353040D01*
Y352040D01*
X318668Y351790D01*
X319168D01*
X319418Y352040D01*
X320917Y351790D02*
X319918D01*
X320917Y352790D01*
Y353040D01*
X320667Y353289D01*
X320168D01*
X319918Y353040D01*
X321417D02*
X321667Y353289D01*
X322167D01*
X322417Y353040D01*
Y352790D01*
X322167Y352540D01*
X321917D01*
X322167D01*
X322417Y352290D01*
Y352040D01*
X322167Y351790D01*
X321667D01*
X321417Y352040D01*
X348472Y323068D02*
X348222Y323317D01*
X347722D01*
X347472Y323068D01*
Y322068D01*
X347722Y321818D01*
X348222D01*
X348472Y322068D01*
X348971Y323317D02*
Y321818D01*
Y322568D01*
X349971D01*
Y323317D01*
Y321818D01*
X351471Y323317D02*
X350471D01*
Y322568D01*
X350971Y322818D01*
X351221D01*
X351471Y322568D01*
Y322068D01*
X351221Y321818D01*
X350721D01*
X350471Y322068D01*
X351970Y321568D02*
X352970D01*
X354470Y323068D02*
X354220Y323317D01*
X353720D01*
X353470Y323068D01*
Y322068D01*
X353720Y321818D01*
X354220D01*
X354470Y322068D01*
X355969Y321818D02*
X354970D01*
X355969Y322818D01*
Y323068D01*
X355719Y323317D01*
X355219D01*
X354970Y323068D01*
X356469D02*
X356719Y323317D01*
X357219D01*
X357469Y323068D01*
Y322818D01*
X357219Y322568D01*
X356969D01*
X357219D01*
X357469Y322318D01*
Y322068D01*
X357219Y321818D01*
X356719D01*
X356469Y322068D01*
X162072Y159242D02*
X161822Y158992D01*
Y158492D01*
X162072Y158242D01*
X163072D01*
X163322Y158492D01*
Y158992D01*
X163072Y159242D01*
X163322Y159741D02*
Y160241D01*
Y159991D01*
X161822D01*
X162072Y159741D01*
Y160991D02*
X161822Y161241D01*
Y161741D01*
X162072Y161991D01*
X162322D01*
X162572Y161741D01*
X162822Y161991D01*
X163072D01*
X163322Y161741D01*
Y161241D01*
X163072Y160991D01*
X162822D01*
X162572Y161241D01*
X162322Y160991D01*
X162072D01*
X162572Y161241D02*
Y161741D01*
X150876Y108712D02*
X149376D01*
Y109462D01*
X149626Y109712D01*
X150126D01*
X150376Y109462D01*
Y108712D01*
Y109212D02*
X150876Y109712D01*
X149626Y110211D02*
X149376Y110461D01*
Y110961D01*
X149626Y111211D01*
X149876D01*
X150126Y110961D01*
Y110711D01*
Y110961D01*
X150376Y111211D01*
X150626D01*
X150876Y110961D01*
Y110461D01*
X150626Y110211D01*
X168148Y108712D02*
X166649D01*
Y109462D01*
X166898Y109712D01*
X167398D01*
X167648Y109462D01*
Y108712D01*
Y109212D02*
X168148Y109712D01*
Y110961D02*
X166649D01*
X167398Y110211D01*
Y111211D01*
X163830Y135865D02*
Y134616D01*
X164080Y134366D01*
X164580D01*
X164830Y134616D01*
Y135865D01*
X166079Y134366D02*
Y135865D01*
X165329Y135116D01*
X166329D01*
X249920Y125705D02*
X249420D01*
X249670D01*
Y124456D01*
X249420Y124206D01*
X249170D01*
X248920Y124456D01*
X250420Y124206D02*
X250919D01*
X250669D01*
Y125705D01*
X250420Y125456D01*
X201660Y142982D02*
X201410Y143231D01*
X200910D01*
X200660Y142982D01*
Y141982D01*
X200910Y141732D01*
X201410D01*
X201660Y141982D01*
X202160Y141732D02*
X202659D01*
X202409D01*
Y143231D01*
X202160Y142982D01*
X203409Y141982D02*
X203659Y141732D01*
X204159D01*
X204409Y141982D01*
Y142982D01*
X204159Y143231D01*
X203659D01*
X203409Y142982D01*
Y142732D01*
X203659Y142482D01*
X204409D01*
X384576Y214106D02*
X384327Y213856D01*
Y213356D01*
X384576Y213106D01*
X385576D01*
X385826Y213356D01*
Y213856D01*
X385576Y214106D01*
X385826Y215605D02*
Y214606D01*
X384826Y215605D01*
X384576D01*
X384327Y215355D01*
Y214855D01*
X384576Y214606D01*
X385826Y217105D02*
Y216105D01*
X384826Y217105D01*
X384576D01*
X384327Y216855D01*
Y216355D01*
X384576Y216105D01*
X384576Y181848D02*
X384327Y181598D01*
Y181098D01*
X384576Y180848D01*
X385576D01*
X385826Y181098D01*
Y181598D01*
X385576Y181848D01*
X385826Y183347D02*
Y182348D01*
X384826Y183347D01*
X384576D01*
X384327Y183097D01*
Y182597D01*
X384576Y182348D01*
X385826Y183847D02*
Y184347D01*
Y184097D01*
X384327D01*
X384576Y183847D01*
X385826Y223774D02*
X384327D01*
Y224524D01*
X384576Y224774D01*
X385076D01*
X385326Y224524D01*
Y223774D01*
Y224274D02*
X385826Y224774D01*
X384327Y226273D02*
Y225273D01*
X385076D01*
X384826Y225773D01*
Y226023D01*
X385076Y226273D01*
X385576D01*
X385826Y226023D01*
Y225523D01*
X385576Y225273D01*
X385572Y196318D02*
Y195068D01*
X385822Y194818D01*
X386322D01*
X386572Y195068D01*
Y196318D01*
X387071Y196068D02*
X387321Y196318D01*
X387821D01*
X388071Y196068D01*
Y195818D01*
X387821Y195568D01*
X388071Y195318D01*
Y195068D01*
X387821Y194818D01*
X387321D01*
X387071Y195068D01*
Y195318D01*
X387321Y195568D01*
X387071Y195818D01*
Y196068D01*
X387321Y195568D02*
X387821D01*
X307106Y134096D02*
X306856Y133846D01*
Y133346D01*
X307106Y133096D01*
X308106D01*
X308356Y133346D01*
Y133846D01*
X308106Y134096D01*
X308356Y135595D02*
Y134595D01*
X307356Y135595D01*
X307106D01*
X306856Y135345D01*
Y134845D01*
X307106Y134595D01*
Y136095D02*
X306856Y136345D01*
Y136845D01*
X307106Y137095D01*
X308106D01*
X308356Y136845D01*
Y136345D01*
X308106Y136095D01*
X307106D01*
X385826Y233680D02*
X384327D01*
Y234430D01*
X384576Y234680D01*
X385076D01*
X385326Y234430D01*
Y233680D01*
Y234180D02*
X385826Y234680D01*
X384327Y236179D02*
X384576Y235679D01*
X385076Y235180D01*
X385576D01*
X385826Y235429D01*
Y235929D01*
X385576Y236179D01*
X385326D01*
X385076Y235929D01*
Y235180D01*
X189484Y122403D02*
Y121154D01*
X189734Y120904D01*
X190234D01*
X190484Y121154D01*
Y122403D01*
X191983D02*
X190984D01*
Y121654D01*
X191483Y121904D01*
X191733D01*
X191983Y121654D01*
Y121154D01*
X191733Y120904D01*
X191233D01*
X190984Y121154D01*
X308102Y119101D02*
Y117852D01*
X308352Y117602D01*
X308852D01*
X309102Y117852D01*
Y119101D01*
X310601D02*
X310101Y118852D01*
X309601Y118352D01*
Y117852D01*
X309851Y117602D01*
X310351D01*
X310601Y117852D01*
Y118102D01*
X310351Y118352D01*
X309601D01*
X359918Y170434D02*
Y171933D01*
X360418Y171434D01*
X360918Y171933D01*
Y170434D01*
X361418D02*
X361917D01*
X361667D01*
Y171933D01*
X361418Y171684D01*
X218186Y146304D02*
X216686D01*
Y147054D01*
X216936Y147304D01*
X217436D01*
X217686Y147054D01*
Y146304D01*
Y146804D02*
X218186Y147304D01*
Y148803D02*
Y147803D01*
X217186Y148803D01*
X216936D01*
X216686Y148553D01*
Y148054D01*
X216936Y147803D01*
X248666Y250674D02*
Y249424D01*
X248916Y249174D01*
X249416D01*
X249666Y249424D01*
Y250674D01*
X250166Y250424D02*
X250415Y250674D01*
X250915D01*
X251165Y250424D01*
Y250174D01*
X250915Y249924D01*
X250665D01*
X250915D01*
X251165Y249674D01*
Y249424D01*
X250915Y249174D01*
X250415D01*
X250166Y249424D01*
X386064Y253218D02*
X385814Y253468D01*
X385314D01*
X385064Y253218D01*
Y252218D01*
X385314Y251968D01*
X385814D01*
X386064Y252218D01*
X386563Y253468D02*
Y251968D01*
Y252718D01*
X387563D01*
Y253468D01*
Y251968D01*
X389063Y253468D02*
X388063D01*
Y252718D01*
X388563Y252968D01*
X388813D01*
X389063Y252718D01*
Y252218D01*
X388813Y251968D01*
X388313D01*
X388063Y252218D01*
X389562Y251718D02*
X390562D01*
X392062Y253218D02*
X391812Y253468D01*
X391312D01*
X391062Y253218D01*
Y252218D01*
X391312Y251968D01*
X391812D01*
X392062Y252218D01*
X393561Y251968D02*
X392562D01*
X393561Y252968D01*
Y253218D01*
X393311Y253468D01*
X392812D01*
X392562Y253218D01*
X394811Y251968D02*
Y253468D01*
X394061Y252718D01*
X395061D01*
X386064Y348214D02*
X385814Y348464D01*
X385314D01*
X385064Y348214D01*
Y347214D01*
X385314Y346964D01*
X385814D01*
X386064Y347214D01*
X386563Y348464D02*
Y346964D01*
Y347714D01*
X387563D01*
Y348464D01*
Y346964D01*
X388813D02*
Y348464D01*
X388063Y347714D01*
X389063D01*
X389562Y346714D02*
X390562D01*
X392062Y348214D02*
X391812Y348464D01*
X391312D01*
X391062Y348214D01*
Y347214D01*
X391312Y346964D01*
X391812D01*
X392062Y347214D01*
X393561Y346964D02*
X392562D01*
X393561Y347964D01*
Y348214D01*
X393311Y348464D01*
X392812D01*
X392562Y348214D01*
X394811Y346964D02*
Y348464D01*
X394061Y347714D01*
X395061D01*
X188214Y143231D02*
Y141982D01*
X188464Y141732D01*
X188964D01*
X189214Y141982D01*
Y143231D01*
X189713D02*
X190713D01*
Y142982D01*
X189713Y141982D01*
Y141732D01*
X371876Y247126D02*
X371627Y246876D01*
Y246376D01*
X371876Y246126D01*
X372876D01*
X373126Y246376D01*
Y246876D01*
X372876Y247126D01*
X371627Y247626D02*
X373126D01*
X372376D01*
Y248625D01*
X371627D01*
X373126D01*
X371627Y250125D02*
Y249125D01*
X372376D01*
X372126Y249625D01*
Y249875D01*
X372376Y250125D01*
X372876D01*
X373126Y249875D01*
Y249375D01*
X372876Y249125D01*
X373376Y250625D02*
Y251624D01*
X371627Y252124D02*
X372876D01*
X373126Y252374D01*
Y252874D01*
X372876Y253124D01*
X371627D01*
X372876Y253624D02*
X373126Y253874D01*
Y254373D01*
X372876Y254623D01*
X371876D01*
X371627Y254373D01*
Y253874D01*
X371876Y253624D01*
X372126D01*
X372376Y253874D01*
Y254623D01*
X296946Y386064D02*
X296696Y385814D01*
Y385314D01*
X296946Y385064D01*
X297946D01*
X298196Y385314D01*
Y385814D01*
X297946Y386064D01*
X296696Y386563D02*
X298196D01*
X297446D01*
Y387563D01*
X296696D01*
X298196D01*
X296946Y388063D02*
X296696Y388313D01*
Y388813D01*
X296946Y389063D01*
X297196D01*
X297446Y388813D01*
Y388563D01*
Y388813D01*
X297696Y389063D01*
X297946D01*
X298196Y388813D01*
Y388313D01*
X297946Y388063D01*
X298446Y389562D02*
Y390562D01*
X296946Y392062D02*
X296696Y391812D01*
Y391312D01*
X296946Y391062D01*
X297946D01*
X298196Y391312D01*
Y391812D01*
X297946Y392062D01*
X298196Y393561D02*
Y392562D01*
X297196Y393561D01*
X296946D01*
X296696Y393311D01*
Y392812D01*
X296946Y392562D01*
X298196Y394811D02*
X296696D01*
X297446Y394061D01*
Y395061D01*
X296148Y373106D02*
X295898Y373355D01*
X295398D01*
X295148Y373106D01*
Y372106D01*
X295398Y371856D01*
X295898D01*
X296148Y372106D01*
X296647Y373355D02*
Y371856D01*
Y372606D01*
X297647D01*
Y373355D01*
Y371856D01*
X298147Y373106D02*
X298397Y373355D01*
X298897D01*
X299147Y373106D01*
Y372856D01*
X298897Y372606D01*
X298647D01*
X298897D01*
X299147Y372356D01*
Y372106D01*
X298897Y371856D01*
X298397D01*
X298147Y372106D01*
X299646Y371606D02*
X300646D01*
X301146Y373355D02*
Y372106D01*
X301396Y371856D01*
X301896D01*
X302146Y372106D01*
Y373355D01*
X302646Y372106D02*
X302896Y371856D01*
X303395D01*
X303645Y372106D01*
Y373106D01*
X303395Y373355D01*
X302896D01*
X302646Y373106D01*
Y372856D01*
X302896Y372606D01*
X303645D01*
X201950Y386064D02*
X201700Y385814D01*
Y385314D01*
X201950Y385064D01*
X202950D01*
X203200Y385314D01*
Y385814D01*
X202950Y386064D01*
X201700Y386563D02*
X203200D01*
X202450D01*
Y387563D01*
X201700D01*
X203200D01*
Y389063D02*
Y388063D01*
X202200Y389063D01*
X201950D01*
X201700Y388813D01*
Y388313D01*
X201950Y388063D01*
X203450Y389562D02*
Y390562D01*
X201950Y392062D02*
X201700Y391812D01*
Y391312D01*
X201950Y391062D01*
X202950D01*
X203200Y391312D01*
Y391812D01*
X202950Y392062D01*
X203200Y393561D02*
Y392562D01*
X202200Y393561D01*
X201950D01*
X201700Y393311D01*
Y392812D01*
X201950Y392562D01*
X203200Y394811D02*
X201700D01*
X202450Y394061D01*
Y395061D01*
X201152Y373106D02*
X200902Y373355D01*
X200402D01*
X200152Y373106D01*
Y372106D01*
X200402Y371856D01*
X200902D01*
X201152Y372106D01*
X201651Y373355D02*
Y371856D01*
Y372606D01*
X202651D01*
Y373355D01*
Y371856D01*
X204151D02*
X203151D01*
X204151Y372856D01*
Y373106D01*
X203901Y373355D01*
X203401D01*
X203151Y373106D01*
X204650Y371606D02*
X205650D01*
X206150Y373355D02*
Y372106D01*
X206400Y371856D01*
X206900D01*
X207150Y372106D01*
Y373355D01*
X207650Y372106D02*
X207899Y371856D01*
X208399D01*
X208649Y372106D01*
Y373106D01*
X208399Y373355D01*
X207899D01*
X207650Y373106D01*
Y372856D01*
X207899Y372606D01*
X208649D01*
X106156Y348214D02*
X105906Y348464D01*
X105406D01*
X105156Y348214D01*
Y347214D01*
X105406Y346964D01*
X105906D01*
X106156Y347214D01*
X106656Y348464D02*
Y346964D01*
Y347714D01*
X107655D01*
Y348464D01*
Y346964D01*
X108155D02*
X108655D01*
X108405D01*
Y348464D01*
X108155Y348214D01*
X109405Y346714D02*
X110404D01*
X111904Y348214D02*
X111654Y348464D01*
X111154D01*
X110904Y348214D01*
Y347214D01*
X111154Y346964D01*
X111654D01*
X111904Y347214D01*
X113403Y346964D02*
X112404D01*
X113403Y347964D01*
Y348214D01*
X113153Y348464D01*
X112654D01*
X112404Y348214D01*
X114653Y346964D02*
Y348464D01*
X113903Y347714D01*
X114903D01*
X126766Y346440D02*
X126517Y346190D01*
Y345690D01*
X126766Y345440D01*
X127766D01*
X128016Y345690D01*
Y346190D01*
X127766Y346440D01*
X126517Y346940D02*
X128016D01*
X127266D01*
Y347939D01*
X126517D01*
X128016D01*
Y348439D02*
Y348939D01*
Y348689D01*
X126517D01*
X126766Y348439D01*
X128266Y349689D02*
Y350688D01*
X126517Y351188D02*
X127766D01*
X128016Y351438D01*
Y351938D01*
X127766Y352188D01*
X126517D01*
X127766Y352688D02*
X128016Y352938D01*
Y353437D01*
X127766Y353687D01*
X126766D01*
X126517Y353437D01*
Y352938D01*
X126766Y352688D01*
X127016D01*
X127266Y352938D01*
Y353687D01*
X371876Y342122D02*
X371627Y341872D01*
Y341372D01*
X371876Y341122D01*
X372876D01*
X373126Y341372D01*
Y341872D01*
X372876Y342122D01*
X371627Y342621D02*
X373126D01*
X372376D01*
Y343621D01*
X371627D01*
X373126D01*
Y344871D02*
X371627D01*
X372376Y344121D01*
Y345121D01*
X373376Y345620D02*
Y346620D01*
X371627Y347120D02*
X372876D01*
X373126Y347370D01*
Y347870D01*
X372876Y348120D01*
X371627D01*
X372876Y348620D02*
X373126Y348870D01*
Y349369D01*
X372876Y349619D01*
X371876D01*
X371627Y349369D01*
Y348870D01*
X371876Y348620D01*
X372126D01*
X372376Y348870D01*
Y349619D01*
M02*
